<?xml version="1.0" standalone="no"?>
<!DOCTYPE svg PUBLIC "-//W3C//DTD SVG 20010904//EN"
 "http://www.w3.org/TR/2001/REC-SVG-20010904/DTD/svg10.dtd">
<svg version="1.0" xmlns="http://www.w3.org/2000/svg"
 width="1519.000000pt" height="1036.000000pt" viewBox="0 0 1519.000000 1036.000000"
 preserveAspectRatio="xMidYMid meet">

<g transform="translate(0.000000,1036.000000) scale(0.100000,-0.100000)"
fill="#000000" stroke="none">
<path d="M0 5180 l0 -5180 7595 0 7595 0 0 5180 0 5180 -7595 0 -7595 0 0
-5180z m7138 3934 l-3 -159 -205 -5 c-227 -6 -242 -9 -280 -73 -18 -30 -20
-52 -20 -289 l0 -258 253 -2 252 -3 3 -172 2 -173 -420 0 -420 0 0 464 c0 522
1 529 75 640 47 71 102 118 185 159 l64 32 251 5 c137 3 253 2 258 -1 4 -3 6
-77 5 -165z m1213 147 c112 -43 187 -109 243 -211 51 -94 56 -145 56 -627 l0
-443 -315 0 -315 0 0 175 0 175 150 0 150 0 0 248 c0 237 -1 250 -22 292 -33
64 -71 80 -185 80 l-93 0 0 163 c0 90 2 166 4 168 2 2 64 4 138 3 111 -1 142
-5 189 -23z m-5081 -1061 l0 -220 -195 0 -195 0 0 213 c0 118 3 217 7 220 3 4
91 7 195 7 l188 0 0 -220z m9030 0 l0 -220 -195 0 -195 0 0 220 0 220 195 0
195 0 0 -220z m-9140 -1137 c0 -2 -19 -35 -42 -74 -53 -88 -160 -205 -242
-264 -62 -44 -200 -115 -223 -115 -7 0 -13 -4 -13 -10 0 -6 -115 -10 -325 -10
l-325 0 0 44 c0 70 11 105 42 136 16 16 43 31 61 34 166 24 273 54 382 108 65
33 170 104 197 134 15 18 35 19 252 19 130 0 236 -1 236 -2z m9545 -148 c102
-50 241 -93 330 -102 119 -11 165 -58 165 -168 l0 -55 -320 0 c-178 0 -328 4
-338 9 -9 5 -47 23 -84 39 -149 67 -305 205 -385 340 -24 40 -43 74 -43 77 0
3 102 6 228 7 l227 3 65 -53 c35 -28 105 -72 155 -97z m-7995 -95 l0 -230
-167 2 -168 3 -3 228 -2 227 170 0 170 0 0 -230z m5850 218 c0 -5 0 -107 0
-228 l0 -220 -170 0 -170 0 0 230 0 230 170 -2 c94 -2 170 -6 170 -10z m-3420
-378 l0 -160 -33 -14 c-19 -7 -43 -26 -55 -41 -22 -27 -22 -34 -22 -371 l0
-343 30 -35 c17 -19 41 -36 53 -38 22 -3 22 -6 22 -163 l0 -160 -30 -3 c-46
-6 -145 17 -198 46 -124 67 -207 219 -207 377 l0 43 -92 21 c-51 12 -142 33
-203 46 l-110 26 3 165 c3 150 4 165 20 160 19 -6 299 -71 350 -81 23 -5 32
-3 33 7 0 7 2 94 3 193 2 159 5 187 25 238 59 150 192 246 344 247 l67 0 0
-160z m983 55 c95 -95 123 -204 114 -442 -3 -77 -4 -143 -1 -146 4 -3 345 73
397 89 16 5 17 -7 17 -159 0 -123 -3 -166 -12 -169 -7 -3 -99 -24 -204 -48
l-191 -44 -7 -83 c-7 -98 -30 -164 -81 -233 -31 -43 -110 -110 -129 -110 -3 0
-6 320 -6 710 l0 711 29 -15 c16 -9 49 -36 74 -61z m-4853 -1217 l0 -223 -194
3 -193 3 -5 202 c-3 111 -9 210 -13 220 -7 16 7 17 199 17 l206 0 0 -222z
m1440 2 l0 -220 -170 0 -170 0 0 220 0 220 170 0 170 0 0 -220z m5850 -2 l0
-223 -132 2 c-73 1 -150 3 -170 3 l-38 0 0 220 0 220 170 0 170 0 0 -222z
m1756 190 c-3 -18 -8 -118 -12 -223 l-7 -190 -193 0 -194 0 0 223 0 222 206 0
206 0 -6 -32z m-5178 -1570 l-3 -173 -417 -3 -418 -2 0 175 0 175 421 0 420 0
-3 -172z m1510 0 l-3 -173 -312 -3 -313 -2 0 175 0 175 315 0 315 0 -2 -172z
m3059 -1654 c56 -36 65 -117 19 -170 -17 -20 -34 -28 -74 -32 -49 -4 -54 -2
-87 31 -28 28 -35 43 -35 74 0 95 97 149 177 97z m-10158 -20 c62 -18 132 -78
163 -139 16 -29 21 -60 22 -115 1 -65 -3 -82 -29 -129 -56 -100 -148 -148
-270 -139 -226 19 -324 279 -167 448 75 81 171 107 281 74z m12616 -21 c0 -12
-106 -149 -608 -783 l-233 -295 -74 0 c-59 0 -75 3 -77 15 -2 8 63 98 143 200
80 102 250 318 377 480 127 162 251 319 275 348 l45 53 76 -3 c52 -2 76 -7 76
-15z m-5525 -197 l0 -103 100 -8 100 -7 0 -74 0 -74 -100 0 -100 0 0 -211 0
-211 30 -30 c28 -28 35 -30 78 -24 104 13 95 16 108 -39 22 -90 21 -92 -43
-111 -39 -11 -79 -15 -129 -12 -93 6 -152 39 -191 106 l-28 47 -3 243 -4 242
-69 0 -70 0 3 78 3 77 68 -3 67 -4 0 111 0 111 90 0 90 0 0 -104z m-1362 -101
c86 -21 149 -55 203 -112 86 -90 114 -164 113 -298 0 -81 -3 -97 -33 -162 -41
-87 -114 -161 -198 -201 -53 -25 -69 -27 -178 -27 -113 0 -124 2 -185 31 -249
118 -308 441 -119 648 57 62 127 102 212 121 81 18 110 18 185 0z m3383 1
c155 -33 265 -130 309 -274 62 -201 -30 -412 -218 -500 -52 -25 -68 -27 -177
-27 -113 0 -124 2 -185 31 -83 39 -155 111 -194 194 -29 60 -31 73 -31 175 0
105 2 114 33 177 57 115 153 192 280 222 74 18 103 19 183 2z m1725 5 c99 -19
163 -50 223 -110 98 -96 144 -229 122 -355 -38 -218 -191 -347 -411 -347 -168
0 -301 78 -371 219 -33 65 -34 71 -34 182 0 104 3 121 27 172 62 134 157 208
303 238 56 11 85 11 141 1z m-11549 -48 c5 -45 -13 -139 -37 -187 -26 -55 -83
-112 -147 -148 l-53 -30 48 -24 c104 -52 180 -161 185 -265 l2 -54 -98 -3
c-106 -3 -101 -6 -111 59 -14 84 -97 158 -203 183 -38 8 -73 23 -80 32 -7 10
-13 44 -13 76 0 70 17 92 79 102 57 9 112 38 155 82 45 46 66 93 73 160 l6 55
95 -3 96 -3 3 -32z m3804 -10 c12 -27 64 -151 116 -278 52 -126 97 -234 100
-239 3 -4 29 50 58 120 29 71 82 199 117 284 l64 155 83 3 c46 2 88 -1 93 -6
4 -4 -80 -208 -188 -453 -108 -244 -218 -493 -244 -554 l-48 -110 -91 -3 c-50
-1 -91 1 -91 6 0 5 34 83 75 173 41 90 75 170 75 177 0 14 -110 270 -258 602
l-70 155 67 6 c131 11 120 14 142 -38z m7084 -343 l0 -385 -80 0 -80 0 -3 375
c-1 206 0 380 2 387 3 8 31 11 83 10 l78 -2 0 -385z m2966 330 c12 -109 84
-196 188 -226 107 -30 106 -29 106 -119 0 -90 12 -78 -110 -111 -78 -21 -157
-95 -174 -164 -7 -25 -14 -51 -16 -58 -4 -9 -30 -12 -102 -10 l-98 3 1 53 c3
101 82 212 189 264 25 12 45 24 45 27 0 4 -25 19 -55 35 -114 59 -185 180
-185 312 l0 55 103 -3 102 -3 6 -55z m-12431 -221 c119 -54 182 -188 146 -311
-44 -152 -203 -234 -357 -183 -99 33 -179 143 -179 245 0 41 26 118 54 161 27
39 89 85 136 100 51 15 153 9 200 -12z m11842 11 c21 -6 57 -25 80 -43 152
-116 131 -362 -38 -447 -134 -67 -302 -16 -367 111 -60 117 -29 259 72 333 26
20 59 40 72 45 32 13 135 13 181 1z m-6967 -1480 l0 -105 -417 -3 -418 -2 0
110 0 110 418 -2 417 -3 0 -105z m1515 0 l0 -110 -315 0 -315 0 0 110 0 110
315 0 315 0 0 -110z"/>
<path d="M1399 2297 c-125 -83 -56 -257 93 -239 40 5 95 60 103 104 14 73 -57
158 -130 158 -18 0 -47 -10 -66 -23z"/>
<path d="M7112 1955 c-101 -31 -162 -120 -162 -234 0 -78 24 -134 80 -185 88
-80 245 -72 327 16 66 71 82 195 37 286 -32 64 -70 97 -136 117 -62 18 -89 18
-146 0z"/>
<path d="M10515 1961 c-113 -30 -175 -113 -175 -236 0 -110 41 -177 135 -221
123 -58 269 -2 321 122 18 43 18 155 1 197 -21 48 -64 95 -110 118 -44 23
-126 32 -172 20z"/>
<path d="M12260 1961 c-86 -28 -142 -84 -166 -167 -61 -210 146 -386 337 -286
61 32 91 71 116 149 14 46 15 62 5 111 -17 80 -57 141 -113 170 -49 25 -138
37 -179 23z"/>
<path d="M2094 1716 c-91 -40 -108 -157 -33 -221 24 -20 41 -25 84 -25 49 0
58 4 90 35 34 35 40 54 35 115 -6 76 -103 129 -176 96z"/>
<path d="M13974 1720 c-88 -27 -117 -152 -50 -219 23 -23 35 -26 90 -26 54 0
68 4 90 24 37 34 50 81 36 130 -10 38 -58 91 -83 91 -7 0 -21 2 -32 4 -11 3
-34 1 -51 -4z"/>
</g>
</svg>
