<?xml version="1.0" standalone="no"?>
<!DOCTYPE svg PUBLIC "-//W3C//DTD SVG 20010904//EN"
 "http://www.w3.org/TR/2001/REC-SVG-20010904/DTD/svg10.dtd">
<svg version="1.0" xmlns="http://www.w3.org/2000/svg"
 width="1536.000000pt" height="1024.000000pt" viewBox="0 0 1536.000000 1024.000000"
 preserveAspectRatio="xMidYMid meet">

<g transform="translate(0.000000,1024.000000) scale(0.100000,-0.100000)"
fill="#000000" stroke="none">
<path d="M0 5120 l0 -5120 7680 0 7680 0 0 5120 0 5120 -7680 0 -7680 0 0
-5120z m4269 4494 c13 -9 29 -32 37 -50 18 -43 18 -175 0 -219 -23 -54 -46
-62 -191 -68 -155 -7 -233 -25 -340 -77 -145 -70 -263 -186 -330 -325 -73
-150 -69 -91 -75 -1095 -6 -887 -6 -907 -27 -982 -88 -313 -271 -544 -546
-691 l-48 -25 62 -32 c87 -44 140 -82 219 -157 118 -111 210 -249 271 -408 63
-162 62 -147 69 -895 7 -759 3 -718 75 -860 72 -140 192 -251 335 -311 75 -31
193 -58 261 -59 20 0 47 -9 61 -20 40 -31 50 -69 46 -174 -3 -89 -5 -98 -31
-123 -27 -27 -31 -28 -125 -27 -187 2 -363 57 -541 171 -177 113 -331 332
-398 565 l-27 93 -6 680 c-6 654 -7 683 -27 756 -70 251 -264 463 -506 553
-63 24 -174 50 -259 61 -35 4 -56 15 -78 36 -26 27 -30 38 -32 92 -3 92 3 180
13 199 17 31 55 49 126 59 329 46 589 234 705 512 56 133 57 148 58 1044 0
526 4 850 11 900 22 160 96 334 203 477 156 207 397 350 672 400 116 21 333
21 363 0z m7283 -18 c375 -100 654 -378 761 -756 21 -73 21 -97 27 -985 l5
-910 24 -70 c53 -160 154 -309 276 -407 113 -91 298 -169 436 -183 151 -16
169 -37 169 -203 l0 -114 -33 -33 c-20 -20 -47 -35 -68 -38 -121 -18 -183 -31
-247 -53 -283 -94 -504 -353 -551 -644 -7 -40 -11 -288 -11 -645 0 -359 -4
-614 -11 -670 -27 -221 -128 -426 -288 -585 -181 -181 -420 -281 -673 -284
-94 -1 -98 0 -125 27 -26 25 -28 35 -32 114 -2 47 2 103 8 123 18 59 39 71
152 86 123 16 207 43 288 92 122 74 201 159 261 280 66 134 63 100 70 852 l6
685 26 95 c51 187 153 365 288 501 72 74 192 161 258 188 18 8 32 16 32 20 0
3 -33 25 -74 48 -247 141 -426 376 -508 669 -22 78 -22 88 -28 984 -6 901 -6
905 -28 979 -60 197 -188 349 -367 436 -115 56 -191 74 -340 81 -66 3 -133 10
-148 16 -44 17 -57 54 -57 162 0 169 13 178 240 173 137 -4 181 -9 262 -31z
m-2972 -817 c81 -38 174 -128 209 -203 45 -95 51 -145 51 -426 l0 -259 683 -3
682 -3 80 -27 c240 -82 412 -264 494 -523 14 -44 16 -226 18 -1632 4 -1723 5
-1696 -52 -1838 -101 -255 -331 -433 -600 -466 -50 -6 -995 -8 -2550 -7 -2774
4 -2503 -4 -2670 79 -157 78 -262 184 -340 344 -87 178 -79 15 -83 1760 -2
1147 0 1573 8 1639 36 269 186 483 420 598 152 74 119 71 863 75 l667 4 0 253
c0 139 5 278 10 307 29 155 150 292 300 340 51 17 114 18 905 16 l850 -2 55
-26z m-7486 -6391 c10 -14 16 -44 16 -75 0 -72 -21 -93 -94 -93 -64 0 -112
-28 -138 -80 -15 -30 -18 -65 -18 -237 0 -210 -9 -281 -43 -348 -33 -65 -59
-95 -120 -135 l-58 -39 38 -20 c50 -25 118 -95 143 -146 30 -63 40 -134 40
-299 0 -132 3 -155 20 -183 25 -42 68 -63 128 -63 78 0 94 -19 90 -105 l-3
-70 -45 -9 c-116 -22 -267 37 -327 127 -46 69 -53 103 -53 274 0 84 -5 175
-11 203 -21 97 -98 168 -209 191 -30 6 -61 16 -67 21 -19 15 -17 142 1 161 8
8 33 17 56 21 88 14 163 69 199 145 25 55 26 62 31 306 5 249 5 250 33 307 31
64 89 117 152 142 57 21 71 24 152 25 64 1 74 -2 87 -21z m13504 -8 c56 -24
99 -66 134 -133 21 -40 23 -57 28 -307 6 -286 9 -302 65 -368 35 -41 99 -79
150 -87 74 -13 85 -26 85 -104 0 -78 -5 -85 -72 -100 -74 -17 -101 -30 -141
-69 -74 -71 -80 -93 -87 -317 -7 -214 -12 -239 -66 -310 -15 -20 -53 -48 -89
-66 -53 -26 -75 -31 -147 -32 -111 -3 -120 4 -116 91 3 75 7 78 92 87 47 6 65
13 95 40 l36 33 6 199 c5 190 6 201 33 260 31 69 89 129 157 163 l42 22 -49
24 c-63 31 -129 104 -156 174 -20 50 -22 80 -27 305 -4 168 -10 257 -18 271
-20 35 -60 54 -130 63 -79 9 -93 24 -93 98 0 41 5 58 21 74 20 20 30 21 108
17 58 -4 103 -13 139 -28z m-2799 -266 c80 -67 37 -194 -66 -194 -38 0 -50 5
-80 35 -33 33 -35 39 -30 81 10 94 107 137 176 78z m-379 -544 l0 -560 -85 0
-85 0 -2 556 c-2 306 -1 558 1 560 2 2 42 4 88 4 l83 0 0 -560z m-9827 525
c50 -21 103 -69 135 -124 23 -40 27 -57 27 -126 0 -69 -4 -86 -27 -126 -57
-97 -133 -141 -244 -142 -88 0 -147 25 -204 90 -92 105 -90 248 6 362 67 80
203 109 307 66z m11983 -10 c93 -46 145 -131 146 -239 1 -144 -98 -253 -247
-272 -103 -13 -220 45 -267 133 -132 241 120 499 368 378z m-10138 -155 c56
-91 131 -212 167 -270 35 -58 70 -113 78 -124 12 -17 29 6 197 273 l183 292
101 -3 101 -3 -1 -320 c-1 -176 -2 -420 -3 -542 l-1 -223 -85 0 -85 0 0 401
c0 234 -4 398 -9 395 -5 -3 -85 -125 -177 -271 l-169 -265 -44 2 -45 3 -133
210 c-187 295 -207 325 -215 325 -5 0 -8 -180 -8 -400 l0 -400 -85 0 -85 0 0
545 0 546 107 -3 108 -3 103 -165z m3045 150 c84 -26 169 -100 206 -180 22
-48 26 -68 25 -155 0 -80 -5 -109 -22 -148 -31 -68 -67 -111 -120 -146 -81
-51 -136 -61 -334 -61 l-178 0 0 -190 0 -190 -90 0 -90 0 -1 188 c0 103 -2
342 -5 531 -3 189 -3 349 0 357 4 11 54 14 275 14 242 0 276 -2 334 -20z
m3727 -65 l0 -85 -255 0 -255 0 -1 -140 c-1 -77 -2 -150 -2 -162 l-1 -23 212
-3 212 -2 0 -80 0 -80 -208 0 -209 0 -6 -112 c-4 -62 -7 -159 -7 -215 l0 -103
-90 0 -90 0 0 545 0 545 350 0 350 0 0 -85z m-7910 71 c0 -4 -404 -523 -725
-933 l-120 -153 -82 0 c-46 0 -83 3 -83 8 0 4 39 57 87 117 48 61 148 189 223
286 74 96 223 288 330 427 l195 251 88 1 c48 0 87 -2 87 -4z m11950 -3 c0 -8
-169 -228 -594 -777 l-237 -306 -80 0 c-43 0 -79 4 -79 9 0 4 134 181 298 393
163 211 349 452 412 536 l115 151 83 1 c45 0 82 -3 82 -7z m-5542 -195 l3
-107 102 -3 102 -3 3 -77 3 -78 -106 0 -105 0 0 -200 c0 -127 4 -208 11 -224
17 -36 59 -50 133 -43 72 7 67 11 81 -84 7 -46 6 -47 -27 -58 -100 -35 -235
-20 -295 32 -70 61 -77 93 -81 349 l-4 227 -71 3 -72 3 -3 71 c-3 82 -1 84 96
84 l52 0 0 103 c0 57 3 107 7 111 4 4 43 5 88 4 l80 -3 3 -107z m-1395 -98
c183 -30 319 -169 342 -350 21 -173 -87 -361 -243 -421 -80 -31 -230 -38 -304
-14 -99 32 -192 107 -234 187 -59 115 -57 275 6 398 45 88 172 178 281 199 61
12 85 12 152 1z m965 1 c9 -5 12 -30 10 -87 l-3 -79 -70 -6 c-81 -7 -97 -13
-144 -47 -64 -47 -71 -79 -71 -334 l0 -228 -90 0 -90 0 2 383 3 382 85 0 85 0
0 -58 c0 -31 2 -57 5 -57 3 0 16 16 29 35 28 42 79 75 141 91 54 15 90 17 108
5z m2456 -1 c82 -13 177 -60 231 -115 122 -121 148 -322 65 -486 -29 -56 -109
-129 -180 -163 -62 -29 -71 -31 -185 -31 -116 0 -123 1 -187 33 -135 66 -215
184 -225 330 -16 235 159 427 402 441 11 0 46 -3 79 -9z m1741 0 c227 -37 380
-255 335 -476 -28 -134 -121 -250 -237 -295 -80 -30 -219 -37 -298 -14 -172
50 -285 200 -285 379 0 163 86 302 226 368 96 45 160 54 259 38z m-7792 -115
c24 -55 76 -180 116 -277 41 -98 76 -178 80 -178 3 0 55 119 115 265 59 145
113 271 120 280 9 13 29 15 103 13 l91 -3 -97 -220 c-106 -239 -233 -527 -333
-755 l-64 -145 -92 -3 c-51 -1 -92 -1 -92 2 0 2 35 82 78 178 l79 174 -169
378 c-92 208 -168 382 -168 387 0 6 42 8 95 7 l96 -3 42 -100z m7135 -283 l2
-383 -84 3 -84 3 -5 352 c-2 194 -2 366 1 383 l4 31 82 -3 81 -3 3 -383z
m-9522 119 c106 -50 162 -147 151 -262 -17 -194 -220 -304 -397 -214 -58 29
-113 91 -128 144 -71 235 155 436 374 332z m11924 -2 c139 -63 200 -225 134
-357 -47 -94 -131 -145 -239 -146 -157 -2 -267 105 -268 259 -1 107 71 215
166 249 62 21 153 20 207 -5z m-3257 -1201 c35 -18 46 -40 47 -86 0 -35 -6
-49 -29 -73 l-29 -29 -3176 0 c-2440 0 -3181 3 -3201 12 -59 27 -73 112 -26
159 l29 29 3182 0 c2399 0 3187 -3 3203 -12z"/>
<path d="M6863 8460 c-60 -36 -63 -53 -63 -325 l0 -245 855 0 855 0 0 235 c0
265 -7 299 -65 335 -32 20 -47 20 -791 20 -735 0 -760 -1 -791 -20z"/>
<path d="M5173 7535 c-74 -20 -121 -46 -181 -100 -61 -55 -97 -112 -123 -196
-18 -56 -19 -100 -19 -593 l0 -533 58 -12 c31 -7 379 -87 772 -178 393 -90
771 -177 840 -193 69 -16 173 -40 232 -54 59 -15 112 -26 118 -26 6 0 10 68
10 188 0 204 11 273 55 348 32 55 91 111 145 139 84 43 137 47 605 43 433 -3
441 -3 497 -26 76 -31 156 -105 193 -179 l30 -58 3 -233 3 -232 22 5 c133 32
1624 374 1782 410 116 25 218 49 228 51 16 5 17 39 17 524 0 340 -4 537 -11
572 -26 125 -113 244 -217 297 -106 54 41 51 -2582 50 -2057 0 -2433 -2 -2477
-14z"/>
<path d="M7268 6014 c-57 -30 -58 -40 -58 -434 0 -394 1 -402 57 -430 22 -11
93 -15 323 -17 162 -1 326 0 365 4 61 5 73 9 102 38 l33 33 0 366 c0 408 -1
415 -65 442 -51 21 -718 20 -757 -2z"/>
<path d="M4850 4937 c0 -913 -1 -897 55 -995 39 -67 116 -137 194 -175 l66
-32 2485 0 2485 0 67 32 c119 56 200 149 239 274 18 58 19 106 19 895 0 609
-3 834 -11 834 -6 0 -68 -13 -138 -29 -69 -17 -227 -53 -351 -81 -124 -28
-328 -76 -455 -105 -348 -81 -793 -184 -950 -219 l-140 -31 -5 -110 c-4 -91
-10 -120 -32 -167 -37 -80 -105 -149 -181 -184 l-62 -29 -469 -3 c-527 -3
-533 -2 -628 68 -103 78 -147 171 -155 327 l-6 102 -66 15 c-36 9 -271 63
-521 121 -910 209 -1415 326 -1427 330 -10 3 -13 -168 -13 -838z"/>
<path d="M1419 1953 c-59 -36 -80 -130 -41 -182 28 -39 86 -64 127 -57 110 21
148 159 64 230 -36 31 -108 35 -150 9z"/>
<path d="M13376 1949 c-56 -44 -72 -118 -37 -175 20 -32 74 -64 111 -64 36 0
91 31 112 64 14 23 18 43 15 80 -4 42 -10 55 -41 83 -30 28 -43 33 -85 33 -34
0 -56 -6 -75 -21z"/>
<path d="M6060 1740 l0 -190 163 0 c136 0 168 3 202 19 73 34 105 85 105 171
0 86 -32 137 -105 171 -34 16 -66 19 -202 19 l-163 0 0 -190z"/>
<path d="M7131 1604 c-140 -70 -170 -288 -54 -395 153 -143 403 -38 403 169 0
83 -19 131 -71 184 -74 74 -180 90 -278 42z"/>
<path d="M10565 1607 c-89 -43 -134 -118 -135 -223 -1 -202 221 -312 383 -190
61 45 87 104 87 191 0 145 -82 236 -219 243 -54 2 -75 -2 -116 -21z"/>
<path d="M12316 1615 c-91 -32 -146 -119 -146 -230 0 -121 56 -199 166 -231
201 -58 370 148 280 342 -52 111 -180 162 -300 119z"/>
<path d="M2120 1382 c-60 -32 -87 -113 -57 -172 18 -35 74 -70 114 -70 98 0
165 108 117 188 -38 64 -113 87 -174 54z"/>
<path d="M14039 1367 c-69 -46 -73 -147 -8 -201 24 -20 41 -26 81 -26 45 0 54
4 89 39 33 32 39 45 39 80 0 23 -7 55 -15 71 -31 61 -124 79 -186 37z"/>
</g>
</svg>
