<?xml version="1.0" standalone="no"?>
<!DOCTYPE svg PUBLIC "-//W3C//DTD SVG 20010904//EN"
 "http://www.w3.org/TR/2001/REC-SVG-20010904/DTD/svg10.dtd">
<svg version="1.0" xmlns="http://www.w3.org/2000/svg"
 width="1484.000000pt" height="1060.000000pt" viewBox="0 0 1484.000000 1060.000000"
 preserveAspectRatio="xMidYMid meet">

<g transform="translate(0.000000,1060.000000) scale(0.100000,-0.100000)"
fill="#000000" stroke="none">
<path d="M0 5300 l0 -5300 7420 0 7420 0 0 5300 0 5300 -7420 0 -7420 0 0
-5300z m4040 4565 c46 -24 60 -62 60 -160 0 -93 -14 -135 -53 -157 -13 -7 -85
-15 -172 -19 -168 -8 -231 -22 -343 -76 -59 -29 -98 -59 -168 -128 -94 -92
-123 -137 -166 -256 l-23 -64 -6 -850 c-3 -467 -8 -859 -11 -870 -3 -11 -9
-40 -13 -65 -18 -109 -140 -375 -173 -375 -4 0 -37 -30 -71 -68 -35 -37 -66
-65 -69 -63 -3 3 1 13 9 22 12 15 12 17 -1 12 -8 -3 -15 -14 -15 -26 0 -11
-12 -29 -25 -41 -14 -11 -20 -20 -14 -21 6 0 50 40 98 90 47 49 86 85 86 80 0
-14 -160 -174 -190 -190 -22 -12 -24 -11 -13 2 15 17 7 28 -19 28 -10 0 -18 7
-18 15 0 8 -4 15 -10 15 -5 0 -12 11 -16 25 -4 18 -13 25 -31 25 -19 0 -24 4
-21 23 3 19 -2 22 -39 25 -36 3 -44 7 -49 27 -8 32 -29 38 -62 19 -18 -10 -15
-6 8 12 67 53 159 152 196 210 20 31 51 96 68 143 l31 86 2 845 c3 807 4 849
24 943 73 350 316 619 666 736 128 43 228 59 381 60 101 1 140 -3 162 -14z
m6577 -6 c218 -42 381 -126 529 -274 130 -129 217 -277 266 -452 22 -77 22
-93 27 -958 l6 -880 23 -64 c13 -35 34 -87 48 -115 14 -28 18 -42 9 -31 -9 11
-20 20 -25 20 -4 0 -12 3 -16 8 -13 12 -34 8 -34 -8 0 -8 -9 -15 -19 -15 -11
0 -23 -4 -26 -10 -3 -5 -16 -10 -28 -10 -21 0 -39 -15 -106 -84 -14 -14 -28
-23 -32 -20 -15 9 -20 -16 -8 -38 7 -14 7 -19 1 -13 -16 15 -77 143 -95 200
-44 136 -46 175 -51 1030 -6 913 -3 872 -77 1022 -73 151 -219 276 -382 329
-68 22 -105 27 -222 31 -219 7 -235 19 -235 180 l0 105 34 34 34 34 135 0 c97
0 167 -6 244 -21z m-2699 -805 c160 -42 269 -141 323 -295 21 -59 23 -85 27
-341 l4 -277 616 -3 617 -3 79 -27 c43 -15 106 -43 140 -64 81 -49 199 -165
243 -239 47 -80 92 -217 99 -307 4 -40 3 -271 -2 -513 -5 -245 -11 -405 -15
-360 -3 44 -6 70 -7 58 -2 -25 -18 -31 -24 -10 -3 6 -17 12 -31 12 -30 1 -36
-11 -9 -18 10 -3 6 -5 -10 -6 -16 0 -28 -7 -28 -13 0 -9 -4 -8 -10 2 -5 8 -10
12 -10 7 0 -4 -11 0 -25 9 -13 8 -29 13 -35 9 -5 -3 -10 1 -10 9 0 8 -9 20
-20 26 -16 9 -20 8 -20 -5 0 -8 -5 -14 -12 -12 -11 2 -30 -61 -22 -75 3 -4 11
-5 19 -1 9 3 15 -1 15 -10 0 -8 6 -17 13 -20 8 -3 7 -10 -7 -26 -13 -14 -22
-18 -26 -10 -4 6 -11 10 -16 10 -5 -1 -12 38 -15 86 l-5 88 -4 -120 c-3 -66
-7 114 -10 400 l-5 520 -32 66 c-54 108 -134 174 -249 204 -54 14 -310 15
-2345 13 l-2284 -3 -56 -23 c-97 -39 -184 -131 -222 -232 -15 -40 -17 -104
-17 -554 0 -280 1 -510 2 -512 2 -2 33 -9 68 -17 204 -46 372 -85 595 -137
138 -33 315 -75 395 -94 80 -19 163 -38 185 -42 22 -4 35 -9 29 -11 -7 -2 -42
3 -79 12 -77 18 -151 11 -121 -10 27 -20 2 -65 -36 -65 -17 0 -27 -4 -23 -10
4 -6 -6 -10 -22 -9 -24 0 -25 1 -8 9 18 7 19 8 3 15 -19 8 -25 35 -8 35 24 0
7 31 -20 37 -41 8 -38 19 8 28 l37 8 -45 14 c-25 7 -60 11 -78 8 l-33 -6 25
-20 c14 -11 31 -17 36 -14 7 4 8 -3 4 -21 -4 -16 -7 -34 -7 -40 0 -6 -13 -10
-31 -7 l-30 3 22 -21 c30 -27 68 -22 64 9 -2 12 2 22 8 22 6 0 9 -4 5 -9 -3
-5 -1 -12 5 -16 18 -11 11 -30 -17 -42 -38 -18 -51 -16 -58 7 -7 22 -40 27
-49 8 -4 -7 -4 -3 -2 9 4 22 3 22 -25 7 -32 -16 -38 -33 -11 -35 9 -1 4 -5
-13 -9 -16 -4 -53 -14 -82 -22 l-52 -14 200 -48 c109 -27 199 -50 199 -53 0
-6 -63 6 -150 28 -41 10 -205 48 -365 84 -159 36 -340 77 -402 92 -62 15 -116
23 -120 19 -4 -4 -10 -229 -14 -499 -4 -422 -6 -454 -9 -222 -2 149 -6 249 -9
224 -5 -36 -10 -45 -23 -43 -10 1 -18 -4 -18 -12 0 -8 -5 -14 -11 -14 -7 0 -9
-10 -7 -25 3 -14 2 -25 -1 -25 -10 0 -37 20 -27 20 5 0 3 6 -3 13 -6 8 -8 17
-4 21 4 4 0 4 -8 1 -9 -3 -16 -12 -17 -20 -1 -8 -3 -22 -4 -30 -2 -24 -18 -17
-18 8 0 16 -3 18 -9 9 -7 -11 -9 -11 -14 2 -10 26 -51 4 -57 -30 -4 -20 -12
-30 -27 -32 -22 -3 -22 -1 -26 135 -1 82 -4 18 -7 -157 l-4 -295 -7 375 c-3
206 -7 722 -8 1145 -1 870 -1 874 68 1017 73 152 173 252 326 329 137 68 147
69 818 69 l597 0 0 273 c0 300 4 329 65 433 62 106 186 192 306 213 30 5 376
9 768 9 581 0 725 -3 769 -14z m3672 -2055 c15 -28 5 -23 -15 7 -9 15 -12 23
-6 20 6 -4 16 -16 21 -27z m70 -74 c13 -14 21 -25 18 -25 -2 0 -15 11 -28 25
-13 14 -21 25 -18 25 2 0 15 -11 28 -25z m-9224 -124 c-6 -9 -112 -61 -124
-61 -6 1 117 68 126 70 2 0 1 -4 -2 -9z m8929 -59 c-3 -3 -6 -3 -7 -1 -2 2
-14 18 -28 34 l-25 30 32 -29 c18 -16 31 -32 28 -34z m-8725 38 c0 -5 -4 -10
-10 -10 -5 0 -10 5 -10 10 0 6 5 10 10 10 6 0 10 -4 10 -10z m-412 -73 c-16
-6 -28 -15 -28 -20 0 -4 -4 -6 -9 -3 -17 11 -109 -15 -128 -36 -14 -16 -19
-43 -24 -132 l-6 -111 -1 100 c-1 63 3 109 11 124 19 37 61 63 124 77 71 15
97 16 61 1z m5377 -13 c24 -11 25 -13 5 -7 -14 3 -198 7 -410 8 l-385 1 300
-6 c165 -3 291 -7 280 -9 -17 -3 -18 -4 -2 -8 9 -2 17 -9 17 -14 0 -5 11 -9
24 -9 14 0 28 -4 31 -10 3 -5 1 -10 -4 -10 -6 0 -11 -7 -11 -15 0 -8 -9 -15
-21 -15 -16 0 -19 -4 -14 -20 4 -12 2 -20 -5 -20 -6 0 -20 -9 -32 -20 -23 -21
-38 -26 -38 -11 0 5 -6 11 -12 14 -7 2 -4 3 6 1 21 -3 46 12 46 28 0 6 -7 5
-16 -3 -13 -10 -17 -10 -25 2 -5 8 -9 17 -9 22 0 9 -30 10 -30 1 0 -4 8 -13
18 -20 13 -10 14 -12 2 -11 -8 2 -20 6 -27 10 -6 4 -14 4 -17 -1 -3 -5 -18 -7
-35 -6 -20 1 -28 -2 -25 -11 3 -7 -8 -18 -25 -25 -17 -7 -31 -17 -31 -22 0 -6
-7 -8 -15 -5 -8 4 -17 2 -20 -3 -4 -6 -12 -10 -18 -10 -7 0 -6 4 3 10 12 8 12
12 2 18 -7 5 -11 15 -9 23 2 8 2 11 0 7 -2 -4 -11 -4 -19 -1 -8 3 -14 -1 -14
-8 0 -10 -17 -15 -61 -16 -39 -2 -68 -8 -79 -18 -20 -18 -39 -19 -65 -2 -17
12 -22 11 -37 -4 -15 -16 -15 -20 -3 -33 8 -8 15 -19 15 -25 0 -8 94 -11 298
-13 163 0 302 -2 307 -3 6 -2 17 -3 26 -4 9 0 27 -10 40 -22 l24 -20 -25 15
c-21 12 -77 15 -320 16 -440 2 -397 5 -436 -34 l-34 -34 -2 -288 -3 -289 -2
239 -3 238 -33 31 c-17 17 -38 30 -45 28 -8 -1 -20 3 -27 9 -8 7 -19 9 -24 6
-5 -4 -14 0 -18 9 -7 12 -15 13 -43 4 -66 -20 -80 -18 -80 7 0 42 10 54 41 47
16 -3 29 -1 29 4 0 6 19 7 48 3 26 -5 50 -6 55 -3 4 2 7 -2 8 -9 0 -8 2 -9 5
-2 3 6 -2 23 -10 39 -8 15 -12 34 -9 43 5 12 1 14 -18 9 -74 -18 -96 -18 -108
-3 -8 9 -17 16 -21 16 -15 0 -30 -63 -31 -129 -1 -56 -2 -62 -10 -36 -18 59
13 178 67 256 29 42 112 102 171 124 57 21 905 20 948 -1z m2205 -34 c0 -5 -5
-10 -11 -10 -5 0 -7 5 -4 10 3 6 8 10 11 10 2 0 4 -4 4 -10z m-2078 -32 c15
-10 37 -33 49 -51 l21 -32 -26 28 c-15 16 -31 25 -38 21 -6 -4 -8 -3 -4 4 3 6
-8 22 -26 37 -35 28 -22 25 24 -7z m-5002 -18 c-33 -26 -140 -83 -146 -78 -2
3 14 15 36 27 39 22 53 35 28 26 -16 -6 -45 11 -36 21 4 4 21 1 37 -6 27 -11
35 -10 63 9 41 26 51 27 18 1z m8840 -26 c0 -2 -9 0 -20 6 -11 6 -20 13 -20
16 0 2 9 0 20 -6 11 -6 20 -13 20 -16z m-4275 -34 c3 -5 -1 -10 -9 -10 -9 0
-16 5 -16 10 0 6 4 10 9 10 6 0 13 -4 16 -10z m-205 -58 c0 -4 -11 -8 -25 -8
-14 0 -25 4 -25 8 0 4 11 8 25 8 14 0 25 -4 25 -8z m2600 -22 c-14 -4 -34 -8
-45 -8 l-20 -1 20 9 c11 5 31 8 45 8 l25 0 -25 -8z m-1841 -42 c4 -18 4 -42 0
-53 -6 -15 -8 -9 -8 22 -1 23 -4 50 -8 60 -3 10 -3 15 1 11 4 -3 11 -21 15
-40z m-5714 -89 c64 -14 67 -23 5 -13 -41 7 -100 46 -100 66 0 6 9 -1 20 -15
14 -18 38 -30 75 -38z m5432 -66 c-3 -10 -5 -2 -5 17 0 19 2 27 5 18 2 -10 2
-26 0 -35z m-1138 -70 c0 -29 -2 -33 -8 -18 -7 18 -4 55 5 55 2 0 4 -17 3 -37z
m3318 -75 c-2 -13 -4 -5 -4 17 -1 22 1 32 4 23 2 -10 2 -28 0 -40z m-4339 -60
c3 -13 -3 -18 -20 -19 -22 0 -22 -1 -3 -9 14 -5 5 -8 -30 -7 -27 0 -44 2 -37
4 6 3 12 14 12 24 0 11 5 17 10 14 6 -3 10 -1 10 5 0 19 54 7 58 -12z m892 12
c20 -6 21 -8 5 -8 -11 0 -31 4 -45 8 -20 6 -21 8 -5 8 11 0 31 -4 45 -8z
m3447 -102 c-2 -13 -4 -5 -4 17 -1 22 1 32 4 23 2 -10 2 -28 0 -40z m-4140
-34 c-3 -3 -12 -4 -19 -1 -8 3 -5 6 6 6 11 1 17 -2 13 -5z m46 -11 c-7 -2 -19
-2 -25 0 -7 3 -2 5 12 5 14 0 19 -2 13 -5z m44 -9 c-3 -3 -12 -4 -19 -1 -8 3
-5 6 6 6 11 1 17 -2 13 -5z m283 -64 c20 -6 21 -8 5 -8 -11 0 -29 3 -40 8 -25
11 1 11 35 0z m57 -16 c-3 -3 -12 -4 -19 -1 -8 3 -5 6 6 6 11 1 17 -2 13 -5z
m-2880 -136 c-3 -7 -5 -2 -5 12 0 14 2 19 5 13 2 -7 2 -19 0 -25z m-2055
-2865 c13 -11 18 -30 18 -66 0 -62 -19 -87 -68 -87 -20 0 -55 -9 -78 -20 -68
-33 -74 -56 -74 -281 0 -171 -3 -202 -22 -264 -19 -59 -31 -79 -83 -131 -33
-33 -77 -67 -98 -74 -37 -14 -49 -34 -24 -43 6 -2 4 -3 -6 -1 -9 1 -40 -9 -67
-22 -30 -14 -69 -24 -97 -25 l-48 0 49 -15 c26 -9 47 -17 45 -19 -5 -4 -105
21 -119 30 -15 9 -13 131 3 143 6 5 35 16 64 25 72 20 144 76 176 136 28 50
28 51 30 278 2 214 3 231 25 279 32 70 98 132 164 155 70 24 184 25 210 2z
m10017 -237 c93 -49 49 -186 -59 -186 -48 0 -90 47 -90 100 0 79 76 123 149
86z m-346 -23 c0 -13 -2 -71 -4 -130 -1 -60 -4 -89 -6 -65 -4 39 -6 41 -25 31
-18 -10 -46 -17 -85 -21 -14 -1 -21 -34 -26 -113 -2 -27 -4 35 -5 138 l-2 188
77 -3 c73 -3 77 -4 76 -25z m-9187 -19 c179 -85 180 -353 0 -446 -60 -32 -173
-31 -239 1 -146 71 -170 292 -45 408 72 68 187 83 284 37z m639 -6 c0 -15 -73
-111 -348 -455 -32 -40 -61 -73 -64 -73 -4 0 2 9 13 21 18 20 18 21 -1 35 -23
17 -92 16 -99 -2 -3 -7 4 -14 15 -17 10 -3 25 -19 32 -36 11 -25 16 -29 27
-18 7 6 1 -5 -15 -25 -32 -44 -43 -50 -18 -10 15 22 15 25 2 14 -13 -10 -22
-8 -52 13 l-37 24 -37 -46 c-89 -108 -77 -88 36 62 67 88 154 203 193 255 40
52 105 137 146 188 l73 93 67 -3 c56 -3 67 -6 67 -20z m1165 -253 c89 -146
166 -267 170 -270 5 -3 39 45 76 107 37 62 112 184 167 271 l100 157 93 0 94
0 -2 -312 c-1 -185 -4 -278 -8 -228 -3 47 -7 77 -8 68 -1 -10 -8 -18 -15 -18
-7 0 -30 -18 -51 -40 -21 -22 -42 -38 -47 -34 -5 3 -10 -31 -11 -78 l-1 -83
-7 70 c-4 39 -8 147 -9 240 -2 155 -3 168 -17 150 -9 -11 -63 -94 -120 -185
-58 -91 -109 -165 -113 -165 -5 0 -13 -4 -18 -9 -5 -5 -3 -6 5 -2 21 12 14 -8
-24 -64 -20 -30 -34 -48 -31 -40 4 12 -7 15 -53 15 -60 0 -61 -2 -31 -40 15
-18 15 -19 -1 -7 -9 7 -49 66 -89 130 -72 116 -84 136 -190 302 l-54 85 -7
-324 c-7 -311 -14 -434 -17 -306 -1 54 -2 58 -14 36 -12 -25 -18 -29 -74 -54
l-32 -15 -4 37 c-2 20 -4 -3 -5 -51 l-2 -87 38 -4 37 -4 -42 -1 -43 -2 0 168
c-1 92 -3 315 -6 495 -3 181 -3 335 0 343 4 11 28 14 105 14 l99 0 162 -265z
m2752 245 c36 -11 84 -34 107 -50 39 -29 101 -111 101 -134 0 -6 -5 -4 -10 4
-5 8 -10 11 -10 6 0 -5 -6 -3 -14 3 -10 8 -23 8 -54 -3 -22 -8 -52 -13 -66
-12 -25 3 -25 2 -11 -14 8 -9 15 -23 15 -31 0 -8 -9 0 -19 17 -10 17 -32 41
-47 53 l-29 23 29 -17 c28 -17 29 -17 47 6 10 13 21 32 25 42 5 16 8 15 26 -8
11 -15 26 -24 34 -21 8 3 11 0 7 -10 -7 -18 11 -18 27 1 10 12 9 20 -4 40 -13
20 -25 25 -55 25 -22 0 -41 -4 -43 -10 -3 -10 -74 -23 -118 -22 -24 0 -24 0
-3 -11 17 -10 -14 -11 -143 -9 l-164 3 -2 -133 c-1 -113 -3 -122 -7 -57 -5 68
-8 76 -25 73 -45 -7 -66 -15 -66 -27 0 -7 -9 -13 -20 -14 -16 -1 -20 5 -22 30
-1 18 -5 -13 -8 -68 -5 -79 -7 -54 -8 116 -1 119 1 219 5 222 3 4 109 7 234 7
198 0 235 -3 291 -20z m3486 -52 l-3 -73 -232 -3 -233 -2 0 -93 c0 -50 -3
-122 -6 -158 -6 -61 -5 -67 14 -73 42 -14 -11 -84 -83 -109 -22 -8 -45 -24
-52 -37 l-11 -23 -5 29 c-2 18 -5 9 -6 -26 -2 -44 -5 -50 -11 -30 -10 30 -13
654 -3 663 3 4 148 7 320 7 l314 0 -3 -72z m-1400 -42 c2 -11 1 -58 -4 -105
-5 -62 -9 -79 -15 -61 l-7 25 -1 -26 c-1 -15 -7 -31 -14 -38 -15 -12 -85 -12
-93 0 -3 5 -26 6 -52 3 -75 -9 -78 -11 -54 -37 22 -23 22 -23 2 -40 -11 -9
-26 -18 -33 -19 -6 0 8 -4 33 -8 l45 -7 -47 -1 -48 -2 0 65 0 65 65 0 65 0 0
98 c0 54 3 102 7 106 4 4 39 6 78 4 59 -3 70 -6 73 -22z m-1861 -208 c-3 -7
-5 -2 -5 12 0 14 2 19 5 13 2 -7 2 -19 0 -25z m-1917 19 c0 -2 11 -32 25 -68
14 -35 18 -55 10 -45 -8 11 -15 23 -15 27 0 10 -20 6 -47 -9 -12 -7 -28 -12
-37 -12 -8 0 -17 -6 -20 -12 -4 -9 -5 -8 -5 2 2 29 -1 43 -8 37 -3 -4 -12 1
-20 11 -11 14 -11 11 0 -19 21 -51 46 -96 47 -81 0 17 47 15 53 -2 6 -16 -11
-36 -30 -36 -7 0 -13 5 -13 12 0 6 -3 9 -6 6 -3 -3 2 -23 11 -43 8 -21 13 -40
11 -42 -2 -2 -25 47 -51 109 -26 62 -53 123 -61 135 -8 12 -14 25 -14 28 0 3
38 5 85 5 47 0 85 -1 85 -3z m500 -13 c-24 -10 -36 -12 -38 -4 -2 6 -10 4 -18
-7 -12 -17 -13 -16 -7 5 5 19 12 22 52 22 l46 -1 -35 -15z m110 8 c0 -5 -13
-7 -30 -4 -16 2 -30 6 -30 8 0 2 14 4 30 4 17 0 30 -4 30 -8z m2367 -14 c-3
-8 -6 -5 -6 6 -1 11 2 17 5 13 3 -3 4 -12 1 -19z m139 -26 l1 -42 -4 40 c-4
35 -7 39 -26 35 -12 -3 -40 -1 -62 4 -38 9 -36 9 25 8 l65 -2 1 -43z m862 18
c2 -19 1 -22 -7 -10 -6 8 -32 20 -58 27 l-48 11 55 -1 c51 -2 55 -4 58 -27z
m2569 8 c-3 -8 -6 -5 -6 6 -1 11 2 17 5 13 3 -3 4 -12 1 -19z m-3160 -60 c-2
-13 -4 -3 -4 22 0 25 2 35 4 23 2 -13 2 -33 0 -45z m-1620 20 c-3 -7 -5 -2 -5
12 0 14 2 19 5 13 2 -7 2 -19 0 -25z m-1206 -55 c-12 -20 -14 -14 -5 12 4 9 9
14 11 11 3 -2 0 -13 -6 -23z m-167 -32 c-9 -23 -18 -40 -20 -38 -2 2 4 22 13
45 9 23 18 40 20 38 2 -2 -4 -22 -13 -45z m4946 45 c0 -2 -8 -10 -17 -17 -16
-13 -17 -12 -4 4 13 16 21 21 21 13z m-1382 -23 c-10 -2 -26 -2 -35 0 -10 3
-2 5 17 5 19 0 27 -2 18 -5z m-331 -75 c-2 -13 -4 -3 -4 22 0 25 2 35 4 23 2
-13 2 -33 0 -45z m-3547 -3 c0 -5 -5 -3 -10 5 -5 8 -10 20 -10 25 0 6 5 3 10
-5 5 -8 10 -19 10 -25z m-2385 -46 c17 -1 1 -5 -35 -9 -36 -4 -76 -10 -90 -15
-39 -12 -16 5 26 20 21 7 45 11 53 10 9 -2 30 -4 46 -6z m2285 -74 c0 -5 -5
-3 -10 5 -5 8 -10 20 -10 25 0 6 5 3 10 -5 5 -8 10 -19 10 -25z m-2502 -19
c-13 -19 -24 -33 -26 -31 -5 4 37 65 44 65 2 0 -6 -15 -18 -34z m-1128 -123
c0 -7 -39 17 -46 28 -3 6 5 3 20 -6 14 -10 26 -19 26 -22z m-160 -70 l25 -28
-35 30 c-55 47 -56 48 -35 37 11 -6 31 -23 45 -39z m77 -175 c-3 -8 -6 -5 -6
6 -1 11 2 17 5 13 3 -3 4 -12 1 -19z m3751 -855 c-10 -2 -28 -2 -40 0 -13 2
-5 4 17 4 22 1 32 -1 23 -4z m-89 -21 c-14 -12 -25 -35 -29 -63 -7 -43 -8 -43
-9 -8 -1 36 29 89 51 89 6 0 0 -8 -13 -18z"/>
<path d="M2619 6936 c-36 -32 -39 -52 -9 -51 22 1 49 -33 45 -56 -4 -21 10
-26 18 -6 3 7 6 5 6 -5 1 -13 9 -18 31 -18 20 0 30 -5 30 -15 0 -9 -6 -12 -15
-9 -9 4 -15 0 -15 -8 0 -9 10 -14 28 -12 31 2 72 14 72 21 0 7 -53 67 -62 71
-5 1 -8 5 -7 9 1 11 -31 24 -42 17 -7 -4 -10 -1 -7 7 2 7 -4 20 -14 29 -10 8
-20 25 -21 38 -1 12 -1 22 -2 22 0 0 -16 -15 -36 -34z"/>
<path d="M11432 7244 c-11 -12 -10 -15 2 -20 9 -3 14 -9 11 -13 -2 -4 0 -21 5
-37 6 -21 9 -24 10 -9 1 16 5 12 20 -15 11 -19 19 -32 20 -29 0 5 -50 132 -53
135 -1 1 -8 -4 -15 -12z"/>
<path d="M11350 7180 c-8 -5 -23 -7 -32 -4 -15 4 -18 -1 -18 -30 0 -32 3 -36
25 -36 14 0 25 6 25 13 0 8 3 7 10 -3 7 -11 15 -12 37 -4 34 12 38 40 6 37
-17 -2 -23 2 -23 17 0 22 -7 25 -30 10z m20 -30 c0 -5 -5 -10 -11 -10 -5 0 -7
5 -4 10 3 6 8 10 11 10 2 0 4 -4 4 -10z"/>
<path d="M11275 7150 c-3 -5 -1 -18 4 -27 9 -16 10 -14 11 10 0 28 -5 34 -15
17z"/>
<path d="M11145 7120 c13 -45 44 -110 53 -110 6 0 13 7 16 16 3 8 10 12 16 9
9 -6 14 8 11 28 0 4 8 7 19 7 17 0 19 3 11 19 -6 10 -8 21 -5 24 3 3 -3 3 -14
0 -11 -2 -23 0 -26 5 -3 6 -15 8 -27 5 -12 -4 -25 0 -30 8 -7 12 -9 12 -9 -1
0 -13 -1 -13 -11 0 -8 11 -9 9 -4 -10z m85 -56 c0 -3 -7 -1 -15 6 -8 7 -15 17
-15 22 0 5 7 3 15 -6 8 -8 15 -18 15 -22z"/>
<path d="M6411 8733 c-18 -9 -45 -34 -60 -56 -26 -40 -26 -42 -29 -256 -2
-118 -1 -230 3 -248 l6 -33 807 2 807 3 3 230 c2 137 -1 244 -7 265 -6 20 -27
51 -46 70 l-36 35 -707 2 c-642 3 -710 1 -741 -14z"/>
<path d="M5338 6283 c6 -2 18 -2 25 0 6 3 1 5 -13 5 -14 0 -19 -2 -12 -5z"/>
<path d="M5388 6273 c7 -3 16 -2 19 1 4 3 -2 6 -13 5 -11 0 -14 -3 -6 -6z"/>
<path d="M5558 6233 c7 -3 16 -2 19 1 4 3 -2 6 -13 5 -11 0 -14 -3 -6 -6z"/>
<path d="M5598 6223 c6 -2 18 -2 25 0 6 3 1 5 -13 5 -14 0 -19 -2 -12 -5z"/>
<path d="M5055 6080 c28 -12 63 -12 70 0 4 6 -12 10 -42 9 -36 0 -43 -3 -28
-9z"/>
<path d="M5138 6063 c7 -3 16 -2 19 1 4 3 -2 6 -13 5 -11 0 -14 -3 -6 -6z"/>
<path d="M6574 6635 c-10 -8 -14 -15 -7 -15 6 0 18 -3 27 -6 10 -4 16 -1 16 9
0 23 -15 28 -36 12z"/>
<path d="M7248 6583 c7 -3 16 -2 19 1 4 3 -2 6 -13 5 -11 0 -14 -3 -6 -6z"/>
<path d="M6660 6550 c0 -5 7 -10 16 -10 8 0 12 5 9 10 -3 6 -10 10 -16 10 -5
0 -9 -4 -9 -10z"/>
<path d="M6717 6546 c-7 -18 17 -46 39 -46 8 0 14 7 14 15 0 18 -16 20 -24 3
-2 -7 -4 -2 -3 11 2 27 -18 40 -26 17z"/>
<path d="M6734 6388 l-19 -23 23 19 c21 18 27 26 19 26 -2 0 -12 -10 -23 -22z"/>
<path d="M6703 6345 c-3 -9 -3 -18 -1 -21 3 -3 8 4 11 16 6 23 -1 27 -10 5z"/>
<path d="M431 1873 c-1 -17 4 -35 9 -38 11 -7 11 9 0 45 -8 24 -8 24 -9 -7z"/>
<path d="M10746 2495 c-3 -8 -1 -25 4 -37 8 -20 9 -18 9 15 1 39 -3 47 -13 22z"/>
<path d="M1430 2463 c-89 -35 -106 -185 -26 -234 69 -42 158 -9 186 69 28 80
-22 159 -106 167 -21 3 -46 2 -54 -2z"/>
<path d="M1470 2110 l-35 -7 35 -1 c19 0 44 3 55 8 l20 9 -20 -1 c-11 0 -36
-4 -55 -8z"/>
<path d="M5880 2445 l-25 -14 38 -1 c26 0 37 4 37 15 0 19 -17 19 -50 0z"/>
<path d="M8082 2290 c0 -14 2 -19 5 -12 2 6 2 18 0 25 -3 6 -5 1 -5 -13z"/>
<path d="M7952 2220 c0 -19 2 -27 5 -17 2 9 2 25 0 35 -3 9 -5 1 -5 -18z"/>
</g>
</svg>
