<?xml version="1.0" standalone="no"?>
<!DOCTYPE svg PUBLIC "-//W3C//DTD SVG 20010904//EN"
 "http://www.w3.org/TR/2001/REC-SVG-20010904/DTD/svg10.dtd">
<svg version="1.0" xmlns="http://www.w3.org/2000/svg"
 width="1506.000000pt" height="1045.000000pt" viewBox="0 0 1506.000000 1045.000000"
 preserveAspectRatio="xMidYMid meet">

<g transform="translate(0.000000,1045.000000) scale(0.100000,-0.100000)"
fill="#000000" stroke="none">
<path d="M0 5225 l0 -5225 7530 0 7530 0 0 5225 0 5225 -7530 0 -7530 0 0
-5225z m4148 4609 c38 -27 52 -67 52 -154 0 -95 -17 -143 -57 -163 -18 -10
-76 -16 -168 -20 -100 -4 -162 -12 -215 -27 -248 -71 -436 -264 -500 -510 -18
-71 -19 -118 -20 -894 0 -818 -3 -882 -37 -1031 -46 -198 -179 -416 -333 -544
-39 -32 -29 -20 33 42 185 184 300 429 312 660 2 45 2 71 -1 57 -14 -72 -12
-71 -50 -67 -21 3 -41 -1 -49 -9 -8 -9 -15 -10 -18 -4 -3 6 -4 5 -2 -2 1 -7 9
-11 16 -9 32 8 59 8 59 0 0 -5 7 -9 15 -9 28 0 15 -37 -26 -73 -22 -21 -45
-37 -50 -37 -6 0 -7 -4 -4 -10 3 -5 1 -10 -4 -10 -6 0 -11 5 -11 12 0 9 -3 9
-12 0 -14 -14 -42 -16 -33 -2 3 6 2 10 -4 10 -5 0 -13 -4 -16 -10 -3 -5 -15
-10 -26 -10 -13 0 -18 4 -13 12 5 7 3 8 -7 2 -18 -11 -39 -14 -39 -5 0 4 -9 7
-20 8 -11 1 -20 -2 -20 -8 0 -5 5 -8 11 -7 6 2 14 -4 16 -12 3 -9 1 -11 -4 -5
-4 6 -15 11 -23 13 -21 5 -40 22 -40 36 0 11 38 51 50 52 3 0 15 6 27 12 16 9
22 9 26 -1 3 -8 10 -7 26 7 11 11 21 14 21 8 0 -7 -4 -12 -10 -12 -16 0 -11
-27 6 -34 11 -4 15 -2 11 8 -3 7 -1 18 4 23 12 12 -17 53 -37 53 -8 0 -12 -5
-9 -10 4 -6 11 -7 17 -4 7 5 8 2 3 -5 -4 -7 -16 -11 -26 -8 -10 3 -20 0 -22
-7 -3 -6 -9 0 -15 14 -8 19 -11 21 -11 7 -1 -10 -7 -17 -13 -14 -10 3 -13 37
-12 133 l2 129 -8 -120 c-8 -132 -24 -194 -77 -299 -62 -123 -161 -236 -278
-316 -55 -38 -200 -107 -240 -115 -16 -3 -3 5 31 18 266 102 442 281 525 532
l23 70 3 745 c3 980 5 1045 32 1145 106 387 415 675 811 759 111 23 113 23
265 25 113 1 145 -2 163 -15z m6998 1 c232 -38 427 -136 587 -296 137 -139
239 -327 278 -512 18 -87 19 -139 19 -917 0 -828 3 -930 36 -1022 8 -23 12
-43 10 -46 -3 -2 -15 27 -27 65 -21 61 -23 95 -29 328 l-6 260 -2 -237 c-1
-151 -6 -238 -12 -238 -5 0 -10 5 -10 10 0 6 -7 10 -15 10 -8 0 -15 5 -15 11
0 6 7 9 15 5 16 -6 21 9 6 19 -5 3 -16 -4 -25 -16 -12 -18 -18 -20 -30 -10
-11 9 -15 9 -19 -1 -2 -7 -8 -9 -13 -5 -5 5 1 17 15 28 13 11 21 22 17 26 -3
4 -13 -2 -21 -13 -13 -17 -14 -17 -15 -1 0 20 -16 23 -24 5 -8 -22 -33 18 -31
51 1 21 -2 28 -12 24 -16 -6 -17 -20 -2 -25 6 -2 0 -12 -13 -23 -16 -14 -19
-15 -9 -3 13 17 8 38 -10 38 -5 0 -19 -10 -31 -22 -15 -15 -20 -16 -15 -5 4
11 2 14 -9 10 -7 -3 -14 -9 -14 -14 0 -5 -4 -9 -10 -9 -6 0 -11 82 -13 213
l-2 212 -3 -265 c-2 -291 7 -378 52 -513 27 -81 70 -172 114 -242 14 -22 19
-34 10 -28 -22 19 -113 199 -137 273 -44 138 -44 131 -51 1060 -7 994 -3 936
-76 1085 -70 143 -185 254 -339 325 -109 51 -157 61 -321 69 -161 7 -186 17
-205 79 -6 22 -10 78 -8 126 4 84 5 89 37 117 32 29 33 29 160 29 70 0 168 -7
218 -15z m-2844 -836 c76 -25 132 -63 193 -131 103 -115 115 -168 115 -522 l0
-276 633 0 c586 0 639 -2 727 -20 244 -49 442 -216 537 -450 52 -130 53 -140
51 -895 l-2 -700 -6 722 c-3 397 -8 725 -12 729 -5 4 -8 -11 -8 -34 0 -23 -5
-42 -11 -42 -5 0 -7 -4 -4 -10 3 -5 1 -10 -4 -10 -6 0 -11 -8 -11 -17 0 -15 4
-13 20 7 l20 25 -1 -80 c0 -64 -3 -75 -10 -54 -9 24 -15 27 -54 25 -24 -1 -41
2 -38 7 2 4 0 14 -7 22 -9 10 -7 16 7 24 10 6 12 11 6 11 -14 0 -18 30 -5 30
5 0 9 7 9 14 0 11 -5 13 -19 5 -21 -11 -50 -9 -60 6 -5 6 -8 5 -8 -3 0 -9 -5
-10 -17 -3 -14 7 -23 5 -40 -11 -29 -27 -49 -18 -55 24 -3 18 -9 42 -13 52 -6
14 -5 17 3 12 7 -4 12 -1 12 9 0 9 -6 15 -12 13 -7 -3 -21 5 -31 16 -18 21
-18 20 -2 -11 8 -18 22 -63 31 -100 14 -59 15 -114 7 -438 l-8 -370 -5 415 -5
415 -33 67 c-18 37 -55 92 -82 121 -27 30 -47 57 -44 60 3 3 -1 5 -8 4 -7 -1
-44 14 -83 33 l-70 35 -2450 0 -2450 0 -68 -32 c-93 -44 -169 -119 -215 -212
l-37 -75 -3 -528 c-2 -337 -6 -527 -12 -523 -6 4 -11 127 -12 308 -1 167 -4
231 -5 144 -3 -135 -6 -158 -18 -153 -9 3 -15 -1 -15 -10 0 -8 -5 -12 -10 -9
-6 4 -7 11 -4 17 4 6 2 8 -3 5 -6 -4 -22 2 -36 13 l-25 20 -7 -30 c-4 -17 -11
-28 -16 -24 -5 3 -7 10 -4 15 4 5 -1 9 -9 9 -9 0 -16 6 -16 13 0 7 -3 8 -8 2
-4 -5 -16 -12 -27 -13 -11 -2 -26 -9 -34 -15 -12 -9 -13 -9 -7 1 4 7 1 12 -9
12 -9 0 -13 -5 -9 -11 4 -7 1 -10 -7 -7 -11 4 -15 49 -19 224 -4 136 -6 -9 -8
-385 -1 -332 -4 -602 -6 -600 -3 3 -6 349 -7 769 -2 856 -3 829 70 984 95 201
259 343 471 407 74 23 82 23 738 27 l662 3 0 283 c0 259 2 287 21 344 52 154
167 265 319 308 34 9 234 12 828 13 766 1 784 1 844 -20z m2012 -1674 c11 -8
17 -16 13 -16 -4 -1 -11 -2 -15 -3 -12 -2 -38 -29 -45 -46 -3 -8 -6 4 -6 27
-1 36 7 50 29 52 3 0 14 -6 24 -14z m1469 0 c-3 -9 -8 -14 -10 -11 -3 3 -2 9
2 15 9 16 15 13 8 -4z m-1466 -60 c-8 -9 -14 -10 -19 -2 -9 16 0 27 17 21 11
-5 12 -9 2 -19z m1523 5 c0 -5 -5 -10 -11 -10 -5 0 -7 5 -4 10 3 6 8 10 11 10
2 0 4 -4 4 -10z m40 -15 c-14 -17 -45 -21 -35 -5 4 6 11 8 16 5 5 -4 9 -1 9 4
0 6 5 11 11 11 8 0 8 -5 -1 -15z m-1343 -87 c-3 -7 -5 -2 -5 12 0 14 2 19 5
13 2 -7 2 -19 0 -25z m1698 -366 c32 -35 89 -84 125 -110 102 -71 110 -85 10
-18 -103 69 -212 192 -269 303 -38 76 -22 60 27 -27 26 -46 74 -113 107 -148z
m-9088 183 c4 -4 3 -5 -3 -2 -7 4 -11 -3 -11 -18 0 -31 -25 -56 -44 -44 -8 5
-23 6 -34 3 -19 -6 -19 -6 -1 8 16 13 17 18 6 39 -10 20 -10 22 1 12 7 -7 22
-12 34 -12 17 1 17 2 2 6 -9 2 -15 9 -11 14 6 11 50 7 61 -6z m8788 -372 c27
-32 39 -49 26 -38 -24 21 -86 95 -79 95 2 0 26 -26 53 -57z m-7314 -10 c13
-16 12 -17 -3 -4 -17 13 -22 21 -14 21 2 0 10 -8 17 -17z m7959 -29 c36 -13
52 -22 35 -19 -28 6 -116 43 -105 44 3 0 34 -11 70 -25z m-2343 -51 c-3 -10
-5 -2 -5 17 0 19 2 27 5 18 2 -10 2 -26 0 -35z m-2569 30 c-120 -2 -316 -2
-435 0 -120 1 -22 2 217 2 239 0 337 -1 218 -2z m-698 -19 c-56 -17 -64 -17
-25 1 17 8 39 14 50 14 11 0 0 -7 -25 -15z m5101 -61 c8 -10 -10 2 -38 26 -29
24 -53 46 -53 48 0 7 75 -54 91 -74z m-9886 52 c-27 -7 -61 -13 -75 -13 -14 0
0 6 30 13 72 17 110 16 45 0z m10528 8 c-7 -2 -19 -2 -25 0 -7 3 -2 5 12 5 14
0 19 -2 13 -5z m114 -13 c13 0 37 -14 55 -31 l33 -31 -33 26 c-19 14 -48 27
-65 27 -18 1 -45 5 -62 10 -26 7 -25 8 10 4 22 -3 50 -5 62 -5z m-10747 -15
c0 -2 -10 -9 -22 -15 -22 -11 -22 -10 -4 4 21 17 26 19 26 11z m8157 -117 c-2
-24 -4 -7 -4 37 0 44 2 63 4 43 2 -21 2 -57 0 -80z m-3377 99 c0 -2 -19 -21
-42 -42 l-43 -40 40 43 c36 39 45 47 45 39z m1230 -32 c19 -19 32 -35 29 -35
-3 0 -20 16 -39 35 -19 19 -32 35 -29 35 3 0 20 -16 39 -35z m4021 -12 c13
-16 12 -17 -3 -4 -10 7 -18 15 -18 17 0 8 8 3 21 -13z m-9301 3 c0 -2 -12 -11
-27 -20 l-28 -17 24 20 c23 21 31 25 31 17z m-793 -163 c-2 -27 -3 -5 -3 47 0
52 1 74 3 48 2 -27 2 -69 0 -95z m10910 4 c-2 -23 -3 -1 -3 48 0 50 1 68 3 42
2 -26 2 -67 0 -90z m-10232 83 c-3 -5 -12 -10 -18 -10 -7 0 -6 4 3 10 19 12
23 12 15 0z m9555 -16 c0 -2 -9 0 -20 6 -11 6 -20 13 -20 16 0 2 9 0 20 -6 11
-6 20 -13 20 -16z m20 -49 c-14 -8 -29 -14 -35 -14 -5 0 1 6 15 14 14 8 30 14
35 14 6 0 -1 -6 -15 -14z m-9600 -5 c8 -5 11 -10 5 -10 -5 0 -17 5 -25 10 -8
5 -10 10 -5 10 6 0 17 -5 25 -10z m2110 -10 c20 -6 21 -8 5 -8 -11 0 -29 3
-40 8 -25 11 1 11 35 0z m57 -16 c-3 -3 -12 -4 -19 -1 -8 3 -5 6 6 6 11 1 17
-2 13 -5z m40 -10 c-3 -3 -12 -4 -19 -1 -8 3 -5 6 6 6 11 1 17 -2 13 -5z m50
-10 c-3 -3 -12 -4 -19 -1 -8 3 -5 6 6 6 11 1 17 -2 13 -5z m40 -10 c-3 -3 -12
-4 -19 -1 -8 3 -5 6 6 6 11 1 17 -2 13 -5z m-2166 -21 c13 -16 12 -17 -3 -4
-17 13 -22 21 -14 21 2 0 10 -8 17 -17z m2256 1 c-3 -3 -12 -4 -19 -1 -8 3 -5
6 6 6 11 1 17 -2 13 -5z m7063 2 c0 -2 -8 -10 -17 -17 -16 -13 -17 -12 -4 4
13 16 21 21 21 13z m-7023 -12 c-3 -3 -12 -4 -19 -1 -8 3 -5 6 6 6 11 1 17 -2
13 -5z m-2256 -21 c13 -16 12 -17 -3 -4 -10 7 -18 15 -18 17 0 8 8 3 21 -13z
m-757 -42 c-2 -3 -12 3 -22 13 -16 17 -16 18 5 5 12 -7 20 -15 17 -18z m846
-36 c30 -30 52 -55 49 -55 -2 0 -29 25 -59 55 -30 30 -52 55 -49 55 2 0 29
-25 59 -55z m-797 28 c-7 -2 -19 -2 -25 0 -7 3 -2 5 12 5 14 0 19 -2 13 -5z
m10690 0 c-7 -2 -21 -2 -30 0 -10 3 -4 5 12 5 17 0 24 -2 18 -5z m-10640 -10
c-7 -2 -19 -2 -25 0 -7 3 -2 5 12 5 14 0 19 -2 13 -5z m137 -33 c18 -12 2 -12
-25 0 -13 6 -15 9 -5 9 8 0 22 -4 30 -9z m50 -20 c8 -5 11 -10 5 -10 -5 0 -17
5 -25 10 -8 5 -10 10 -5 10 6 0 17 -5 25 -10z m641 -57 c13 -16 12 -17 -3 -4
-10 7 -18 15 -18 17 0 8 8 3 21 -13z m1702 -40 c-7 -2 -19 -2 -25 0 -7 3 -2 5
12 5 14 0 19 -2 13 -5z m-2138 -23 c10 -11 16 -20 13 -20 -3 0 -13 9 -23 20
-10 11 -16 20 -13 20 3 0 13 -9 23 -20z m2182 14 c-3 -3 -12 -4 -19 -1 -8 3
-5 6 6 6 11 1 17 -2 13 -5z m7593 -8 c0 -2 -8 -10 -17 -17 -16 -13 -17 -12 -4
4 13 16 21 21 21 13z m-7457 -23 c-7 -2 -19 -2 -25 0 -7 3 -2 5 12 5 14 0 19
-2 13 -5z m-2263 -28 c13 -14 21 -25 18 -25 -2 0 -15 11 -28 25 -13 14 -21 25
-18 25 2 0 15 -11 28 -25z m2307 19 c-3 -3 -12 -4 -19 -1 -8 3 -5 6 6 6 11 1
17 -2 13 -5z m40 -10 c-3 -3 -12 -4 -19 -1 -8 3 -5 6 6 6 11 1 17 -2 13 -5z
m7323 3 c0 -2 -10 -12 -22 -23 l-23 -19 19 23 c18 21 26 27 26 19z m-7283 -13
c-3 -3 -12 -4 -19 -1 -8 3 -5 6 6 6 11 1 17 -2 13 -5z m220 -50 c-3 -3 -12 -4
-19 -1 -8 3 -5 6 6 6 11 1 17 -2 13 -5z m50 -10 c-3 -3 -12 -4 -19 -1 -8 3 -5
6 6 6 11 1 17 -2 13 -5z m-4169 -3381 c13 -12 23 -36 27 -70 6 -47 4 -55 -19
-78 -20 -20 -35 -25 -74 -25 -58 0 -106 -28 -136 -80 -19 -32 -21 -56 -26
-270 -5 -227 -6 -237 -31 -290 -27 -56 -82 -120 -122 -141 -12 -7 1 9 28 36
28 26 41 40 29 31 -19 -15 -22 -15 -38 3 -17 19 -17 19 1 17 10 -2 26 1 36 6
12 6 17 5 17 -4 1 -14 50 61 50 76 0 4 -15 -3 -34 -18 -19 -14 -48 -27 -65
-28 -18 -1 -31 -8 -31 -16 0 -7 -4 -10 -10 -7 -5 3 -10 2 -10 -2 0 -11 -63
-10 -71 1 -4 5 -21 1 -39 -8 -18 -9 -34 -16 -36 -16 -2 0 20 21 47 47 91 85
93 92 99 373 5 228 7 248 28 295 26 56 69 105 121 137 72 45 222 63 259 31z
m13199 -13 c57 -25 108 -71 133 -120 32 -63 40 -136 40 -359 0 -214 0 -218 26
-269 14 -29 42 -66 62 -83 21 -17 30 -28 22 -24 -8 5 -23 15 -32 23 -10 8 -18
12 -18 7 0 -4 -7 -2 -15 5 -8 7 -12 16 -10 21 11 16 -101 59 -165 62 -14 1
-28 9 -33 17 -4 8 -5 -3 -3 -24 6 -45 57 -132 75 -128 7 1 10 -2 7 -7 -4 -5 8
-21 26 -36 18 -15 24 -22 12 -16 -33 16 -94 89 -118 140 -19 42 -21 69 -26
286 -5 252 -10 275 -56 317 -23 19 -86 38 -131 38 -47 0 -66 33 -57 99 10 74
27 84 131 77 52 -3 101 -13 130 -26z m-2769 -241 c40 -14 65 -53 65 -100 0
-51 -25 -86 -72 -100 -32 -9 -44 -9 -73 5 -81 39 -80 151 3 193 30 16 38 16
77 2z m-350 -356 c-2 -295 -3 -326 -8 -178 -3 99 -7 156 -8 127 -1 -34 -6 -51
-12 -47 -6 4 -17 2 -24 -4 -7 -6 -28 -12 -47 -13 -33 -3 -34 -4 -45 -63 -10
-51 -12 -15 -13 238 l-1 297 80 0 80 0 -2 -357z m-9578 316 c97 -44 150 -128
150 -239 0 -158 -115 -267 -277 -263 -100 3 -190 68 -228 166 -37 96 3 244 81
303 72 56 192 70 274 33z m11691 -2 c90 -44 143 -131 144 -237 0 -80 -24 -146
-68 -186 -17 -16 -26 -22 -19 -14 14 17 16 34 2 25 -5 -3 -10 -2 -10 2 0 5
-14 8 -31 7 -21 -1 -29 2 -25 11 9 25 -15 35 -47 18 -17 -8 -57 -17 -88 -18
-32 -1 -81 -8 -109 -15 l-52 -13 28 -24 c18 -14 21 -20 9 -14 -61 29 -109 121
-109 210 -1 113 52 201 149 248 41 20 62 23 120 21 40 -2 86 -11 106 -21z
m-11027 -6 c5 -7 -243 -343 -281 -381 -14 -13 -14 -13 -4 8 16 30 7 28 -14 -4
-9 -15 -12 -23 -6 -20 6 4 11 4 11 1 0 -9 -90 -125 -97 -125 -3 0 0 7 7 15 10
12 9 15 -5 15 -9 0 -31 12 -48 26 l-31 26 -33 -36 c-18 -20 -33 -45 -33 -56 0
-13 -10 -24 -25 -30 -14 -5 -25 -14 -25 -20 0 -5 -4 -10 -10 -10 -5 0 36 60
92 133 55 72 158 207 227 300 l126 167 72 0 c39 0 74 -4 77 -9z m1153 -181
c122 -197 134 -218 114 -206 -15 10 8 -38 34 -69 9 -11 7 -3 -5 18 -42 72 -13
47 34 -29 26 -42 45 -78 42 -81 -2 -3 -9 4 -14 14 -7 12 -20 18 -39 17 -15 0
-31 4 -35 10 -5 7 -13 4 -26 -9 -29 -31 -33 -54 -17 -86 29 -56 6 -28 -49 60
-58 91 -65 107 -43 95 7 -4 9 -3 4 2 -5 5 -14 9 -20 9 -5 0 -27 27 -48 60 -40
63 -47 81 -27 69 7 -4 8 -3 4 5 -4 6 -12 9 -17 6 -5 -4 -12 1 -15 9 -17 45
-24 -1 -24 -161 -1 -133 -3 -173 -11 -159 -6 10 -9 32 -6 50 3 17 1 49 -3 71
-4 22 -8 33 -9 24 -1 -13 -12 -17 -53 -16 l-53 0 -6 66 c-5 61 -6 58 -8 -39
-2 -58 -6 -127 -11 -155 -4 -30 -8 83 -9 283 l-1 333 101 -3 102 -3 114 -185z
m791 -167 c-2 -322 -3 -337 -8 -153 -3 113 -7 170 -8 128 l-2 -77 -32 13 c-44
17 -61 23 -73 25 -5 0 -13 31 -16 68 -4 46 -7 4 -9 -127 l-4 -195 -6 205 -5
205 -38 -55 c-20 -30 -42 -55 -48 -55 -7 0 -19 -11 -28 -25 -9 -14 -11 -21 -3
-16 21 13 14 -5 -29 -71 -49 -74 -62 -83 -22 -15 16 27 21 42 11 34 -21 -17
-67 -5 -95 24 l-22 24 -21 -35 c-32 -52 -35 -42 -3 13 28 48 147 242 228 370
l46 72 94 0 95 0 -2 -357z m2177 332 c83 -30 150 -88 186 -161 28 -59 43 -152
31 -195 -6 -19 -11 -27 -11 -18 -1 15 -36 30 -103 44 -16 3 -27 9 -26 13 0 4
-3 16 -8 27 -9 20 -11 10 -27 -132 -1 -11 -5 -19 -10 -16 -4 2 -10 -2 -13 -11
-3 -8 -18 -22 -32 -32 l-27 -17 26 29 c61 66 76 152 40 229 -40 88 -85 104
-288 105 l-153 0 -2 -172 c-1 -160 -2 -166 -8 -71 -3 57 -9 106 -13 109 -4 4
-7 -3 -7 -15 0 -16 -8 -23 -32 -28 -18 -4 -36 -6 -40 -5 -5 1 -8 -2 -8 -7 0
-5 -9 -11 -20 -14 -19 -5 -20 0 -22 91 -1 54 -5 -24 -8 -173 l-5 -270 -3 358
-2 359 268 -4 c226 -4 275 -7 317 -23z m3605 -55 l0 -80 -244 0 -243 0 -7 -46
c-3 -26 -7 -101 -8 -168 l-2 -121 -6 135 c-3 74 -7 114 -8 88 -1 -35 -6 -48
-17 -48 -8 0 -15 -6 -15 -13 0 -9 -10 -12 -30 -9 -18 2 -31 0 -31 -7 -1 -6 -3
-15 -4 -21 -1 -5 -3 -15 -4 -22 -2 -21 -14 1 -21 39 -6 28 -8 15 -9 -54 0 -50
-4 -94 -9 -97 -9 -5 -16 479 -7 494 4 6 119 10 336 10 l329 0 0 -80z m3964 72
c3 -5 -60 -94 -140 -198 -80 -104 -177 -231 -216 -281 -66 -88 -98 -123 -62
-68 16 24 15 27 0 44 -10 11 -16 27 -14 38 5 32 -43 23 -80 -17 -33 -34 21 39
226 309 146 192 133 181 213 181 37 0 70 -4 73 -8z m-5424 -202 l0 -110 105 0
105 0 0 -70 0 -70 -105 0 -105 0 -3 -177 -3 -178 1 180 0 180 103 3 102 3 0
59 0 60 -67 0 c-59 -1 -66 -2 -50 -14 15 -12 16 -14 2 -20 -8 -3 -15 -12 -15
-21 0 -8 -8 -15 -17 -16 -10 0 -25 -2 -33 -4 -53 -10 -162 -16 -157 -8 9 15
-51 6 -78 -11 -13 -9 -37 -17 -52 -18 -15 -1 1 -4 37 -8 l65 -7 -73 -1 -73 -2
3 70 2 70 73 0 73 0 0 110 0 110 80 0 80 0 0 -110z m-1278 -109 c72 -25 130
-64 164 -110 l27 -36 -34 32 c-34 32 -58 36 -102 18 -15 -6 -16 -10 -5 -16 9
-6 3 -9 -17 -10 -16 0 -24 -3 -17 -6 14 -5 17 -33 3 -33 -6 0 -13 5 -16 10 -3
6 -10 10 -15 10 -5 0 10 -19 33 -41 l42 -41 -44 36 c-57 46 -99 59 -177 54
-35 -2 -58 0 -51 4 18 11 121 10 153 -2 35 -14 51 0 37 32 -7 16 -19 23 -39
23 -16 1 -39 4 -51 9 -17 5 -23 3 -23 -7 0 -19 -43 -40 -66 -33 -11 3 -22 6
-27 6 -14 0 -63 28 -76 44 -19 22 -45 20 -77 -7 -23 -20 -25 -25 -12 -38 8 -8
13 -20 10 -27 -5 -15 -38 -16 -48 0 -5 7 -15 2 -32 -18 l-24 -29 18 34 c35 62
135 132 218 152 63 15 191 10 248 -10z m878 -61 l0 -80 -57 2 -58 2 53 3 52 4
0 57 c0 31 -4 52 -8 45 -6 -10 -16 -10 -45 -1 -20 6 -33 16 -30 21 4 6 -5 7
-23 3 -39 -10 -40 -13 -13 -36 l24 -20 -23 -19 c-24 -21 -72 -22 -97 -1 -11 9
-17 5 -29 -17 -8 -15 -15 -23 -16 -16 0 24 65 86 115 109 32 16 69 24 103 24
l52 0 0 -80z m2448 61 c33 -10 73 -28 89 -39 35 -25 42 -62 11 -62 -11 0 -44
-7 -73 -15 -39 -12 -59 -13 -80 -5 -15 6 -25 13 -22 17 7 7 -31 43 -45 43 -5
0 -6 5 -3 10 8 13 -21 13 -44 0 -10 -5 -24 -23 -30 -39 -8 -17 -26 -35 -44
-43 -35 -14 -87 -18 -87 -5 0 4 5 7 12 7 6 0 3 7 -8 15 -16 12 -17 16 -5 24
12 8 12 12 2 25 -8 9 -17 16 -22 16 -19 0 -92 -76 -120 -125 -31 -53 -40 -55
-13 -3 40 76 145 161 234 189 49 15 186 10 248 -10z m1752 -17 c90 -43 173
-131 194 -204 4 -14 -7 0 -24 30 -17 30 -44 68 -59 84 l-29 28 -48 -28 c-81
-45 -79 -43 -37 -88 l38 -41 -40 37 c-52 48 -101 68 -170 68 -66 0 -108 -16
-161 -61 l-39 -33 30 33 c47 52 94 71 172 71 40 -1 78 -7 93 -15 14 -8 30 -14
35 -14 6 0 -5 8 -23 17 -18 10 -39 29 -45 42 -17 34 -57 44 -101 26 -22 -9
-36 -22 -36 -33 0 -11 -17 -27 -41 -40 -40 -22 -42 -22 -76 -4 l-36 18 23 21
c13 12 27 19 33 15 5 -3 7 0 5 8 -3 8 -11 13 -17 12 -6 -2 -11 2 -11 7 0 24
-35 6 -86 -44 -30 -30 -50 -47 -45 -37 14 26 94 97 131 116 75 39 105 45 205
42 88 -2 108 -6 165 -33z m-7694 -106 c60 -149 62 -157 26 -89 -17 33 -31 49
-34 40 -3 -9 -16 -13 -42 -11 -20 2 -43 -2 -51 -8 -11 -9 -17 -6 -29 17 -26
47 -18 19 19 -68 35 -83 40 -97 30 -87 -4 4 -100 217 -142 316 -4 9 17 12 85
12 l89 0 49 -122z m594 116 c0 -12 -93 -215 -97 -211 -2 2 4 20 12 40 8 20 15
39 15 41 0 3 -19 3 -41 0 -26 -4 -39 -2 -35 4 3 5 -4 22 -16 38 -13 15 -18 25
-11 21 7 -5 9 0 5 15 -5 19 -8 16 -24 -22 -20 -47 -17 -76 7 -66 12 4 15 -1
13 -24 -1 -16 -6 -26 -10 -24 -4 3 -8 -5 -9 -18 0 -13 -3 -18 -5 -11 -3 7 -12
9 -21 6 -13 -5 -15 -1 -11 20 7 39 0 33 -18 -13 -9 -23 -18 -39 -20 -37 -3 3
30 91 81 215 l14 32 85 0 c48 0 86 -3 86 -6z m2614 -3 c3 -5 3 -23 0 -40 -6
-26 -8 -28 -21 -16 -8 8 -23 15 -34 15 -11 0 -30 5 -41 11 -17 9 -18 13 -7 20
10 6 6 9 -13 9 -24 0 -28 -4 -28 -30 0 -27 2 -29 18 -21 15 8 23 4 41 -19 23
-31 20 -34 -31 -30 -21 1 -28 -3 -28 -16 0 -13 -3 -15 -11 -7 -7 7 -9 32 -4
72 l7 61 73 0 c41 0 76 -4 79 -9z m3724 -118 l-2 -128 -6 110 c-3 61 -7 97 -8
80 -2 -20 -5 -26 -10 -17 -7 10 -15 10 -37 2 -25 -9 -32 -8 -49 11 -12 12 -15
19 -8 15 6 -4 12 -2 12 3 0 6 -5 11 -11 11 -5 0 -8 4 -4 9 3 5 1 12 -5 16 -6
4 -10 -29 -10 -96 0 -56 -3 -99 -7 -96 -4 4 -7 52 -7 107 l-1 100 78 0 77 0
-2 -127z m-2848 75 l0 -33 -23 25 c-24 25 -24 25 -3 32 12 3 22 6 24 7 1 1 2
-14 2 -31z m-4768 -30 c-7 -7 -12 -8 -12 -2 0 14 12 26 19 19 2 -3 -1 -11 -7
-17z m6793 -25 c40 -49 61 -84 69 -114 4 -13 -7 1 -24 31 -17 30 -45 70 -62
88 -18 17 -28 32 -22 32 5 0 23 -17 39 -37z m725 1 c0 -8 -5 -14 -11 -14 -5 0
-7 -4 -4 -10 3 -5 1 -10 -4 -10 -6 0 -11 13 -11 30 0 22 4 28 15 24 8 -4 15
-12 15 -20z m1785 -12 c-3 -3 1 -12 8 -20 10 -13 9 -15 -6 -9 -12 4 -16 3 -11
-4 3 -6 18 -8 33 -5 20 4 19 2 -9 -11 -41 -19 -157 -22 -186 -5 -15 9 -9 10
31 5 49 -6 49 -6 31 12 -12 12 -14 21 -7 23 6 2 11 10 11 18 0 10 8 13 25 10
13 -3 27 -1 30 4 3 5 16 4 30 -2 14 -6 23 -13 20 -16z m-2681 -37 c27 -17 56
-42 65 -55 12 -19 5 -15 -28 13 -56 50 -98 67 -166 67 -69 0 -118 -20 -170
-68 l-40 -37 35 39 c52 58 101 77 185 74 57 -3 79 -9 119 -33z m-3574 -2 c-14
-9 -37 -26 -51 -37 -14 -12 -7 -4 14 17 22 20 44 37 51 37 6 0 -1 -7 -14 -17z
m1510 1 c0 -8 -5 -12 -10 -9 -6 4 -8 11 -5 16 9 14 15 11 15 -7z m-1040 -35
c12 -23 20 -43 18 -45 -3 -2 -14 17 -26 41 -27 56 -20 60 8 4z m495 29 c-11
-6 -37 -27 -59 -47 -33 -31 -36 -32 -21 -9 17 27 71 68 90 68 6 -1 1 -6 -10
-12z m417 -56 c-6 -69 -12 -65 -12 9 0 38 4 59 9 51 4 -7 6 -34 3 -60z m-1817
19 c-8 -17 -18 -31 -21 -31 -3 0 -4 3 -2 8 21 43 32 61 35 58 3 -2 -3 -18 -12
-35z m5237 -11 c-9 -21 -18 -35 -20 -30 -3 9 25 70 33 70 2 0 -4 -18 -13 -40z
m-2024 23 c-26 -2 -71 -2 -100 0 -29 2 -8 3 47 3 55 0 79 -1 53 -3z m119 -85
c-2 -18 -4 -4 -4 32 0 36 2 50 4 33 2 -18 2 -48 0 -65z m-6207 42 c-6 -11 -13
-20 -16 -20 -2 0 0 9 6 20 6 11 13 20 16 20 2 0 0 -9 -6 -20z m9690 -20 c-17
-22 -34 -40 -37 -40 -2 0 10 18 27 40 17 22 34 40 37 40 2 0 -10 -18 -27 -40z
m-11555 -30 c-25 -33 -48 -60 -51 -60 -3 0 16 27 41 60 25 33 48 60 51 60 3 0
-16 -27 -41 -60z m3284 -9 c-12 -28 -24 -50 -26 -47 -2 2 6 27 18 55 12 29 23
50 25 48 3 -2 -5 -27 -17 -56z m1028 53 c-3 -3 -12 -4 -19 -1 -8 3 -5 6 6 6
11 1 17 -2 13 -5z m-3882 -20 l30 -14 -30 7 c-49 13 -157 7 -204 -10 -24 -8
-39 -11 -35 -7 36 36 184 51 239 24z m1589 4 c-34 -57 -87 -138 -90 -138 -6 0
-4 3 49 88 21 34 41 62 43 62 3 0 2 -6 -2 -12z m2696 9 c0 -2 -10 -12 -22 -23
l-23 -19 19 23 c18 21 26 27 26 19z m191 -43 c-5 -21 -9 -30 -10 -19 -1 24 10
67 15 62 3 -2 0 -22 -5 -43z m5659 1 c6 -19 10 -39 8 -44 -2 -5 -10 12 -19 39
-8 27 -12 47 -8 44 4 -2 13 -20 19 -39z m-1563 13 c-3 -8 -6 -5 -6 6 -1 11 2
17 5 13 3 -3 4 -12 1 -19z m-3478 -28 c0 -10 -3 -8 -9 5 -12 27 -12 43 0 25 5
-8 9 -22 9 -30z m6601 30 c8 -5 11 -10 5 -10 -5 0 -17 5 -25 10 -8 5 -10 10
-5 10 6 0 17 -5 25 -10z m-11600 -47 l25 -28 -35 30 c-55 47 -56 48 -35 37 11
-6 31 -23 45 -39z m2376 -40 c-4 -4 -36 73 -35 85 0 4 9 -13 20 -37 11 -24 18
-46 15 -48z m5491 55 c-3 -8 -6 -5 -6 6 -1 11 2 17 5 13 3 -3 4 -12 1 -19z
m-9767 7 c0 -3 -11 -10 -25 -15 -21 -8 -24 -16 -28 -72 l-4 -63 1 65 c1 58 3
66 26 77 29 15 30 15 30 8z m7397 -107 c-2 -18 -4 -4 -4 32 0 36 2 50 4 33 2
-18 2 -48 0 -65z m-970 60 c-3 -8 -6 -5 -6 6 -1 11 2 17 5 13 3 -3 4 -12 1
-19z m480 0 c-3 -8 -6 -5 -6 6 -1 11 2 17 5 13 3 -3 4 -12 1 -19z m2850 0 c-3
-8 -6 -5 -6 6 -1 11 2 17 5 13 3 -3 4 -12 1 -19z m3273 18 c0 -2 -8 -10 -17
-17 -16 -13 -17 -12 -4 4 13 16 21 21 21 13z m-6763 -68 c-2 -13 -4 -5 -4 17
-1 22 1 32 4 23 2 -10 2 -28 0 -40z m-4540 36 c-3 -3 -12 -4 -19 -1 -8 3 -5 6
6 6 11 1 17 -2 13 -5z m223 -38 c0 -12 -5 -7 -19 24 -11 24 -11 24 3 6 9 -11
16 -24 16 -30z m1195 -40 l17 -31 -20 24 c-11 14 -27 38 -37 55 l-17 31 20
-24 c11 -14 27 -38 37 -55z m2448 67 c-13 -2 -33 -2 -45 0 -13 2 -3 4 22 4 25
0 35 -2 23 -4z m-1142 -40 c-12 -20 -14 -14 -5 12 4 9 9 14 11 11 3 -2 0 -13
-6 -23z m-4088 -108 c24 -36 14 -26 -39 35 -25 30 -29 37 -10 20 15 -14 37
-38 49 -55z m13577 51 c0 -2 -8 -10 -17 -17 -16 -13 -17 -12 -4 4 13 16 21 21
21 13z m-9821 -940 c-8 -8 -79 -35 -79 -30 0 6 60 33 74 34 5 0 7 -2 5 -4z
m980 -1 c-7 -7 -749 -8 -756 -1 -4 3 166 6 377 6 211 0 381 -2 379 -5z m244
-2 c-40 -2 -107 -2 -150 0 -43 1 -10 3 72 3 83 0 118 -2 78 -3z m299 0 c-40
-2 -103 -2 -140 0 -37 2 -4 3 73 3 77 0 107 -2 67 -3z m206 0 c-15 -2 -42 -2
-60 0 -18 2 -6 4 27 4 33 0 48 -2 33 -4z m240 0 c-32 -2 -84 -2 -115 0 -32 2
-6 3 57 3 63 0 89 -1 58 -3z m125 0 c-7 -2 -21 -2 -30 0 -10 3 -4 5 12 5 17 0
24 -2 18 -5z m290 0 c-45 -2 -122 -2 -170 0 -48 1 -11 3 82 3 94 0 133 -2 88
-3z m390 0 c-35 -2 -91 -2 -125 0 -35 2 -7 3 62 3 69 0 97 -1 63 -3z m100 0
c-7 -2 -19 -2 -25 0 -7 3 -2 5 12 5 14 0 19 -2 13 -5z m529 0 c-73 -2 -190 -2
-260 0 -70 1 -10 3 133 3 143 0 200 -2 127 -3z m256 0 c-21 -2 -55 -2 -75 0
-21 2 -4 4 37 4 41 0 58 -2 38 -4z m434 0 c-73 -2 -190 -2 -260 0 -70 1 -10 3
133 3 143 0 200 -2 127 -3z m446 0 c-49 -2 -127 -2 -175 0 -49 1 -9 3 87 3 96
0 136 -2 88 -3z m315 0 c-13 -2 -35 -2 -50 0 -16 2 -5 4 22 4 28 0 40 -2 28
-4z m215 0 c-27 -2 -69 -2 -95 0 -27 2 -5 3 47 3 52 0 74 -1 48 -3z m149 1
c-3 -3 -12 -4 -19 -1 -8 3 -5 6 6 6 11 1 17 -2 13 -5z m120 -1 c-20 -2 -52 -2
-70 0 -17 2 0 4 38 4 39 0 53 -2 32 -4z m90 1 c-3 -3 -12 -4 -19 -1 -8 3 -5 6
6 6 11 1 17 -2 13 -5z m226 -1 c-18 -2 -48 -2 -65 0 -18 2 -4 4 32 4 36 0 50
-2 33 -4z m174 0 c-20 -2 -52 -2 -70 0 -17 2 0 4 38 4 39 0 53 -2 32 -4z m191
0 c-10 -2 -28 -2 -40 0 -13 2 -5 4 17 4 22 1 32 -1 23 -4z m68 -25 c19 -23 19
-23 -1 -7 -11 9 -27 19 -35 22 -13 5 -13 6 1 6 9 1 24 -9 35 -21z"/>
<path d="M3059 7169 c-6 -13 -7 -19 -1 -15 6 3 12 0 15 -6 2 -7 4 -1 4 15 1
33 -3 34 -18 6z"/>
<path d="M2966 7085 c4 -8 13 -15 21 -15 12 0 12 2 -1 15 -8 8 -17 15 -20 15
-3 0 -3 -7 0 -15z"/>
<path d="M11781 7392 c-17 -31 -13 -40 5 -14 9 13 14 26 11 29 -3 2 -10 -4
-16 -15z"/>
<path d="M6689 8667 c-19 -12 -44 -42 -56 -67 -22 -42 -23 -55 -23 -287 l0
-243 840 0 840 0 0 254 c0 247 -1 254 -23 287 -12 18 -38 44 -56 56 l-34 23
-727 0 -727 0 -34 -23z"/>
<path d="M8593 8105 c0 -22 2 -30 4 -17 2 12 2 30 0 40 -3 9 -5 -1 -4 -23z"/>
<path d="M10355 7810 c10 -11 20 -20 23 -20 3 0 -3 9 -13 20 -10 11 -20 20
-23 20 -3 0 3 -9 13 -20z"/>
<path d="M8358 7753 c6 -2 18 -2 25 0 6 3 1 5 -13 5 -14 0 -19 -2 -12 -5z"/>
<path d="M8418 7753 c12 -2 30 -2 40 0 9 3 -1 5 -23 4 -22 0 -30 -2 -17 -4z"/>
<path d="M9875 7740 c22 -5 53 -13 69 -19 16 -7 31 -10 33 -7 7 7 -89 36 -116
35 -19 -1 -14 -4 14 -9z"/>
<path d="M10461 7655 c0 -5 6 -21 14 -35 8 -14 14 -20 14 -15 0 6 -6 21 -14
35 -8 14 -14 21 -14 15z"/>
<path d="M10112 7613 c17 -18 32 -33 33 -33 6 0 1 40 -6 41 -5 1 -15 2 -21 3
-7 1 -12 7 -11 12 1 6 -5 11 -13 11 -9 0 -3 -12 18 -34z"/>
<path d="M10501 7560 c0 -8 4 -22 9 -30 12 -18 12 -2 0 25 -6 13 -9 15 -9 5z"/>
<path d="M10521 7484 c0 -11 3 -14 6 -6 3 7 2 16 -1 19 -3 4 -6 -2 -5 -13z"/>
<path d="M10506 7403 c-6 -14 -5 -15 5 -6 7 7 10 15 7 18 -3 3 -9 -2 -12 -12z"/>
<path d="M10454 7367 c-8 -17 -7 -26 2 -35 8 -7 15 -8 19 -2 3 6 1 10 -4 10
-6 0 -11 5 -11 11 0 6 7 9 15 5 13 -4 14 -2 5 14 -13 25 -13 25 -26 -3z"/>
<path d="M10450 7296 c0 -2 7 -7 16 -10 8 -3 12 -2 9 4 -6 10 -25 14 -25 6z"/>
<path d="M4651 7024 c0 -11 3 -14 6 -6 3 7 2 16 -1 19 -3 4 -6 -2 -5 -13z"/>
<path d="M4500 6681 c0 -5 7 -11 15 -15 8 -3 15 -1 15 3 0 5 -7 11 -15 15 -8
3 -15 1 -15 -3z"/>
<path d="M1455 2051 c-46 -28 -66 -56 -72 -98 -10 -77 49 -153 120 -153 43 0
97 29 118 64 40 66 12 163 -56 192 -46 19 -74 18 -110 -5z"/>
<path d="M1670 1748 c-19 -16 -26 -26 -15 -20 18 9 64 53 54 52 -2 -1 -20 -15
-39 -32z"/>
<path d="M1400 1710 c8 -5 22 -9 30 -9 10 0 8 3 -5 9 -27 12 -43 12 -25 0z"/>
<path d="M1458 1693 c7 -3 16 -2 19 1 4 3 -2 6 -13 5 -11 0 -14 -3 -6 -6z"/>
<path d="M1528 1693 c6 -2 18 -2 25 0 6 3 1 5 -13 5 -14 0 -19 -2 -12 -5z"/>
<path d="M13132 2050 c-43 -26 -75 -97 -67 -144 10 -50 63 -97 118 -103 27 -3
53 0 68 8 13 8 30 14 38 14 8 0 16 9 17 20 2 11 8 38 15 61 11 36 10 46 -7 80
-37 76 -116 104 -182 64z"/>
<path d="M12956 1860 c7 -27 46 -102 50 -97 2 1 -11 29 -27 62 -17 33 -27 49
-23 35z"/>
<path d="M3490 1630 c6 -11 13 -20 16 -20 2 0 0 9 -6 20 -6 11 -13 20 -16 20
-2 0 0 -9 6 -20z"/>
<path d="M13635 1777 c-34 -19 -40 -27 -40 -56 l-1 -34 34 39 c30 35 58 75 50
73 -2 0 -21 -10 -43 -22z"/>
<path d="M8531 1944 c0 -11 3 -14 6 -6 3 7 2 16 -1 19 -3 4 -6 -2 -5 -13z"/>
<path d="M8275 1840 c28 -12 93 -12 100 0 4 6 -17 10 -57 9 -44 0 -57 -3 -43
-9z"/>
<path d="M7070 1860 c-11 -7 -7 -10 18 -10 20 0 31 4 27 10 -8 13 -26 13 -45
0z"/>
<path d="M7317 1813 c-12 -12 -7 -21 14 -26 17 -5 18 -3 7 10 -12 15 -10 15
12 3 23 -12 24 -12 11 3 -14 18 -33 22 -44 10z"/>
<path d="M10460 1864 c0 -8 27 -34 35 -34 12 0 34 27 28 34 -8 8 -63 8 -63 0z"/>
<path d="M12175 1860 c3 -5 8 -10 11 -10 2 0 4 5 4 10 0 6 -5 10 -11 10 -5 0
-7 -4 -4 -10z"/>
<path d="M4474 1788 c8 -21 20 -46 26 -55 10 -16 10 -15 5 4 -5 18 -3 21 17
16 22 -6 23 -6 5 14 -14 16 -15 22 -5 26 7 3 2 6 -12 6 -15 1 -32 7 -39 14 -9
8 -8 1 3 -25z"/>
<path d="M4607 1786 c-4 -10 -3 -15 3 -11 6 3 10 1 10 -6 0 -7 3 -10 6 -6 3 3
2 13 -4 22 -8 16 -9 16 -15 1z"/>
<path d="M13238 1693 c7 -3 16 -2 19 1 4 3 -2 6 -13 5 -11 0 -14 -3 -6 -6z"/>
</g>
</svg>
