<?xml version="1.0" standalone="no"?>
<!DOCTYPE svg PUBLIC "-//W3C//DTD SVG 20010904//EN"
 "http://www.w3.org/TR/2001/REC-SVG-20010904/DTD/svg10.dtd">
<svg version="1.0" xmlns="http://www.w3.org/2000/svg"
 width="1254.000000pt" height="1254.000000pt" viewBox="0 0 1254.000000 1254.000000"
 preserveAspectRatio="xMidYMid meet">

<g transform="translate(0.000000,1254.000000) scale(0.100000,-0.100000)"
fill="#000000" stroke="none">
<path d="M3088 11879 c-200 -13 -417 -58 -608 -124 -815 -284 -1462 -1020
-1650 -1877 -23 -109 -41 -273 -45 -428 -9 -330 -14 -6039 -5 -6223 19 -394
103 -711 281 -1056 267 -517 684 -926 1194 -1172 298 -144 574 -215 920 -239
199 -13 6042 -13 6250 0 355 23 660 106 970 265 756 387 1280 1144 1374 1985
7 64 12 1139 13 3340 3 3078 2 3251 -15 3370 -47 325 -135 596 -281 859 -127
230 -267 412 -467 606 -330 321 -692 527 -1109 631 -296 74 -3 68 -3535 70
-1743 1 -3223 -2 -3287 -7z m935 -2191 c42 -22 46 -38 47 -171 0 -123 -1 -129
-25 -152 -16 -17 -35 -25 -59 -25 -193 0 -393 -147 -467 -341 -38 -99 -41
-143 -48 -629 -7 -447 -9 -491 -29 -561 -45 -167 -127 -296 -240 -379 -37 -27
-73 -50 -79 -50 -25 0 -12 -20 26 -40 54 -27 153 -120 195 -184 19 -29 46 -81
60 -117 54 -135 56 -157 56 -662 0 -530 4 -567 70 -702 75 -156 215 -256 388
-280 29 -4 62 -15 74 -25 21 -16 22 -25 20 -141 -2 -165 0 -163 -172 -156
-146 6 -237 29 -351 88 -198 103 -335 278 -401 514 -21 77 -22 101 -28 620 -5
484 -8 546 -24 595 -55 166 -147 261 -284 292 -83 18 -92 36 -92 177 0 144 4
152 104 181 129 39 223 133 268 270 21 62 22 87 29 620 5 448 9 568 22 620 72
304 265 518 549 610 113 36 345 53 391 28z m4867 -16 c302 -79 512 -302 586
-623 14 -63 18 -156 23 -624 7 -529 8 -552 29 -615 27 -81 77 -157 136 -205
47 -38 130 -75 170 -75 12 0 31 -9 41 -20 16 -17 18 -39 19 -149 1 -148 -6
-164 -76 -175 -102 -16 -218 -108 -268 -211 -52 -107 -53 -116 -60 -670 l-7
-520 -26 -100 c-51 -191 -153 -355 -281 -451 -141 -106 -277 -153 -467 -161
-170 -7 -169 -8 -169 155 0 144 6 152 118 172 158 27 294 132 366 282 57 122
58 131 66 673 6 471 8 505 28 579 47 172 159 330 280 399 49 27 53 32 37 41
-153 89 -261 232 -316 418 -21 69 -23 100 -29 563 -6 452 -9 496 -28 566 -41
151 -120 266 -234 340 -60 38 -188 79 -250 79 -21 0 -46 9 -62 21 -26 20 -26
22 -26 150 0 136 7 164 43 180 36 15 273 3 357 -19z m-2061 -541 c120 -37 219
-123 272 -236 40 -84 49 -144 49 -321 l0 -154 353 0 c311 0 360 -2 418 -18
156 -44 270 -149 328 -305 l21 -58 0 -1200 c0 -1063 -2 -1208 -16 -1263 -43
-167 -181 -300 -355 -341 -94 -22 -3157 -22 -3262 0 -146 31 -259 121 -330
264 l-42 84 -3 1201 c-2 807 1 1217 8 1250 28 132 130 265 248 325 114 58 142
61 519 61 l343 0 2 38 c1 20 2 93 3 162 0 69 7 150 14 180 30 122 115 237 218
292 101 55 116 57 655 57 460 1 501 0 557 -18z m-4844 -4911 l0 -55 -52 -5
c-95 -10 -113 -48 -113 -238 0 -142 -9 -174 -68 -222 l-40 -34 38 -27 c57 -42
70 -86 70 -242 0 -200 16 -234 112 -246 l53 -6 3 -49 c4 -58 -4 -66 -68 -66
-103 0 -179 42 -213 119 -18 38 -22 73 -26 211 -7 194 -13 211 -88 233 -45 13
-47 16 -50 53 -5 65 3 82 45 94 21 5 49 21 63 36 23 24 24 34 30 187 6 177 15
212 67 260 39 37 103 57 177 54 l60 -2 0 -55z m8800 27 c25 -14 49 -39 65 -67
23 -42 25 -58 30 -212 5 -164 5 -168 31 -194 15 -14 42 -29 60 -33 l34 -7 3
-67 c2 -56 0 -67 -13 -67 -29 0 -76 -31 -95 -63 -17 -28 -20 -51 -20 -173 0
-173 -13 -227 -69 -277 -44 -40 -93 -57 -162 -57 -47 0 -47 0 -50 38 -7 69 -1
82 36 82 47 0 82 18 94 49 6 14 12 96 14 181 4 173 16 215 78 263 l31 24 -31
22 c-60 43 -74 88 -78 256 -2 83 -9 160 -15 171 -13 27 -49 44 -92 44 -22 0
-36 6 -40 16 -10 27 -7 79 7 93 18 19 132 5 182 -22z m-1945 -532 l0 -425 -70
0 -70 0 -1 268 c-1 147 -3 338 -4 425 l-2 157 74 0 73 0 0 -425z m247 379 c22
-22 25 -32 20 -67 -7 -50 -36 -77 -81 -77 -37 0 -73 29 -82 65 -7 30 12 81 35
95 31 18 81 11 108 -16z m-5562 -116 c38 -67 90 -160 118 -207 l50 -84 24 39
c13 21 67 114 119 207 l96 167 84 0 84 0 0 -405 0 -405 -75 0 -75 0 -2 263 -3
262 -120 -198 c-82 -136 -124 -197 -135 -195 -8 2 -67 89 -130 195 -63 106
-117 192 -120 193 -3 0 -5 -21 -5 -47 0 -27 -2 -144 -3 -260 l-2 -213 -75 0
-75 0 0 405 0 405 89 0 89 0 67 -122z m2001 95 c52 -28 108 -90 125 -139 33
-97 8 -224 -55 -289 -60 -62 -131 -85 -256 -85 l-100 0 0 -135 0 -135 -75 0
-75 0 -2 406 -3 405 200 -3 c183 -3 203 -5 241 -25z m2474 -43 l0 -70 -162 -2
-163 -3 -3 -102 -3 -103 151 0 150 0 0 -70 0 -70 -150 0 -150 0 0 -160 0 -160
-75 0 -75 0 0 405 0 405 240 0 240 0 0 -70z m-5613 -1 c66 -25 106 -88 105
-165 0 -60 -19 -101 -62 -138 -62 -52 -150 -56 -222 -10 -110 70 -94 258 27
310 37 16 114 18 152 3z m420 -1 c-8 -21 -448 -712 -461 -723 -6 -6 -30 -8
-53 -5 l-42 5 200 315 c110 173 215 339 232 368 31 51 32 52 80 52 35 0 48 -4
44 -12z m4243 -79 l0 -79 65 0 65 0 0 -65 0 -65 -65 0 -65 0 0 -144 c0 -169 3
-176 81 -176 l49 0 0 -64 0 -65 -53 -6 c-57 -7 -124 6 -164 32 -49 33 -58 65
-63 248 l-5 170 -48 3 -48 3 3 62 3 62 48 3 47 3 0 69 0 69 58 11 c31 6 62 13
67 14 21 7 25 -7 25 -85z m3110 26 c63 -32 90 -151 52 -224 -24 -49 -63 -74
-115 -75 -88 -2 -130 44 -135 149 -3 60 0 75 20 105 13 19 35 40 48 47 34 17
95 16 130 -2z m266 -87 c-30 -57 -115 -211 -188 -343 l-134 -240 -37 -3 c-20
-2 -37 0 -37 3 0 4 30 62 66 128 37 67 109 201 162 297 150 278 138 260 184
260 l40 0 -56 -102z m-4291 -37 c111 -49 169 -143 170 -276 0 -94 -24 -155
-87 -216 -108 -104 -303 -105 -418 -2 -64 58 -93 125 -93 221 0 63 4 81 34
139 39 76 85 118 161 145 68 24 164 20 233 -11z m612 -1 c1 -14 -1 -46 -4 -71
l-5 -47 -48 -4 c-26 -3 -61 -14 -77 -26 -55 -39 -63 -72 -63 -251 l0 -161 -75
0 -75 0 0 290 0 290 69 0 70 0 3 -51 3 -52 25 38 c32 49 83 76 135 73 35 -3
40 -6 42 -28z m1695 2 c57 -25 115 -82 142 -141 16 -36 21 -65 21 -136 0 -78
-4 -97 -27 -141 -55 -106 -156 -160 -277 -152 -115 9 -198 65 -245 168 -30 66
-29 188 2 255 25 55 81 118 124 141 72 38 183 41 260 6z m1130 4 c51 -22 104
-70 136 -125 25 -42 27 -55 27 -151 0 -118 -10 -146 -74 -213 -49 -53 -104
-79 -176 -84 -124 -10 -219 42 -274 150 -31 60 -35 76 -35 146 0 65 5 88 28
134 33 68 98 128 163 150 56 20 148 16 205 -7z m-5177 -173 c38 -104 71 -192
75 -196 4 -4 37 80 75 187 l67 196 80 0 c60 0 79 -3 75 -12 -3 -7 -64 -165
-135 -350 -72 -186 -140 -351 -151 -367 -55 -77 -148 -121 -226 -107 l-35 7 0
69 0 70 48 0 c29 0 55 7 68 18 24 19 54 73 54 96 0 13 -151 407 -200 521 -11
26 -20 49 -20 51 0 2 35 4 79 4 l78 0 68 -187z m4696 155 c2 -18 3 -149 1
-290 l-3 -258 -69 0 -70 0 0 283 c0 156 3 287 7 290 3 4 34 7 69 7 l62 0 3
-32z m-6286 -189 c111 -31 158 -179 89 -285 -33 -50 -127 -82 -192 -65 -110
30 -163 152 -111 258 40 82 122 117 214 92z m7714 -53 c33 -34 36 -40 39 -108
4 -93 -15 -133 -80 -166 -40 -20 -51 -22 -86 -12 -114 30 -145 211 -50 296 32
30 46 34 97 30 34 -3 51 -12 80 -40z m-2726 -1015 c25 -20 21 -67 -5 -85 -20
-14 -178 -16 -1495 -16 -1460 0 -1473 0 -1493 20 -30 30 -25 66 12 86 10 5
619 9 1491 9 1234 0 1477 -2 1490 -14z"/>
<path d="M5824 8850 c-52 -12 -101 -48 -120 -88 -16 -30 -20 -66 -22 -189 l-3
-153 585 0 586 0 0 148 c0 122 -4 154 -19 188 -21 47 -59 77 -116 93 -46 12
-839 14 -891 1z"/>
<path d="M4707 8106 c-54 -15 -99 -53 -130 -111 -21 -39 -22 -53 -25 -410 -2
-203 -1 -379 2 -391 15 -59 506 -211 933 -288 103 -19 206 -36 228 -38 l40 -3
5 95 c4 83 9 102 36 150 38 67 103 114 179 130 36 7 146 10 313 8 282 -3 303
-7 380 -72 61 -53 86 -109 90 -210 2 -50 7 -94 11 -98 15 -15 428 60 671 123
288 74 526 164 536 203 3 11 4 190 2 397 l-3 376 -30 49 c-20 31 -47 58 -75
74 l-45 25 -1535 2 c-1230 1 -1545 -1 -1583 -11z"/>
<path d="M6052 6938 c-14 -18 -11 -403 4 -418 7 -7 78 -10 210 -8 l199 3 0
215 0 215 -201 3 c-154 2 -204 -1 -212 -10z"/>
<path d="M4550 6273 l0 -579 28 -55 c20 -40 39 -61 72 -80 l45 -27 1548 -6
c1219 -5 1558 -4 1590 6 54 16 119 81 135 134 17 57 18 1174 1 1174 -7 0 -69
-20 -138 -44 -233 -81 -607 -167 -908 -209 l-158 -22 -5 -75 c-9 -125 -62
-204 -169 -254 -43 -20 -62 -21 -331 -21 -268 0 -288 1 -330 21 -109 51 -160
125 -169 247 l-6 82 -180 27 c-226 35 -348 59 -550 109 -131 32 -378 110 -457
144 -17 7 -18 -24 -18 -572z"/>
<path d="M5240 3830 l0 -130 80 0 c48 0 95 6 115 14 70 30 96 122 52 187 -29
43 -71 58 -169 58 l-78 1 0 -130z"/>
<path d="M2265 3925 c-36 -35 -35 -96 1 -124 35 -28 69 -26 99 4 50 49 17 145
-50 145 -14 0 -37 -11 -50 -25z"/>
<path d="M10050 3891 c-17 -33 -12 -99 10 -121 25 -25 31 -25 64 1 31 24 36
81 10 117 -20 28 -69 30 -84 3z"/>
<path d="M5944 3730 c-55 -22 -101 -118 -89 -184 20 -105 129 -161 222 -113
102 53 109 227 11 287 -34 21 -105 26 -144 10z"/>
<path d="M8270 3733 c-53 -19 -90 -83 -90 -155 0 -99 58 -162 148 -160 109 1
174 123 124 235 -25 56 -71 87 -127 86 -22 0 -47 -3 -55 -6z"/>
<path d="M9384 3721 c-87 -53 -87 -229 0 -286 35 -23 106 -22 147 1 98 58 99
229 1 287 -39 23 -109 22 -148 -2z"/>
<path d="M2712 3553 c-18 -7 -42 -57 -42 -88 0 -33 41 -75 73 -75 13 0 36 9
51 21 21 16 26 29 26 64 0 35 -5 48 -26 64 -26 20 -55 25 -82 14z"/>
<path d="M10397 3548 c-54 -42 -34 -158 28 -158 46 0 76 68 55 121 -19 45 -52
60 -83 37z"/>
</g>
</svg>
