<?xml version="1.0" standalone="no"?>
<!DOCTYPE svg PUBLIC "-//W3C//DTD SVG 20010904//EN"
 "http://www.w3.org/TR/2001/REC-SVG-20010904/DTD/svg10.dtd">
<svg version="1.0" xmlns="http://www.w3.org/2000/svg"
 width="588.000000pt" height="697.000000pt" viewBox="0 0 588.000000 697.000000"
 preserveAspectRatio="xMidYMid meet">

<g transform="translate(0.000000,697.000000) scale(0.100000,-0.100000)"
fill="#000000" stroke="none">
<path d="M5833 6963 c9 -2 25 -2 35 0 9 3 1 5 -18 5 -19 0 -27 -2 -17 -5z"/>
<path d="M1032 6819 c-258 -33 -513 -178 -668 -380 -96 -124 -172 -307 -194
-464 -8 -58 -10 -776 -8 -2575 l3 -2495 22 -78 c60 -209 152 -369 292 -507
128 -126 272 -203 456 -246 77 -18 161 -19 2005 -19 1860 0 1928 1 2000 19 96
24 193 61 247 92 23 13 49 24 58 24 8 0 31 16 51 35 19 19 39 35 45 35 11 0
139 123 139 134 0 4 18 30 39 59 86 113 157 287 180 437 9 56 11 718 9 2580
l-3 2505 -28 100 c-51 186 -143 341 -282 474 -148 142 -298 222 -490 262 -86
18 -170 19 -1950 18 -1023 -1 -1888 -5 -1923 -10z m3903 -85 c180 -54 312
-131 435 -254 136 -136 230 -330 260 -535 8 -58 10 -751 8 -2565 l-3 -2485
-24 -80 c-85 -295 -281 -516 -554 -625 -158 -63 -46 -60 -2125 -60 -1838 0
-1900 1 -1984 20 -166 36 -304 110 -428 226 -130 123 -216 271 -267 459 l-27
100 -3 2435 c-1 1527 1 2472 8 2535 36 377 265 677 608 799 159 57 67 55 2126
52 1892 -2 1900 -2 1970 -22z"/>
<path d="M2007 6693 c513 -2 1353 -2 1865 0 513 1 94 2 -932 2 -1026 0 -1445
-1 -933 -2z"/>
<path d="M1018 6683 c6 -2 18 -2 25 0 6 3 1 5 -13 5 -14 0 -19 -2 -12 -5z"/>
<path d="M4838 6683 c6 -2 18 -2 25 0 6 3 1 5 -13 5 -14 0 -19 -2 -12 -5z"/>
<path d="M968 6673 c7 -3 16 -2 19 1 4 3 -2 6 -13 5 -11 0 -14 -3 -6 -6z"/>
<path d="M870 6650 c-18 -12 -2 -12 25 0 13 6 15 9 5 9 -8 0 -22 -4 -30 -9z"/>
<path d="M758 6604 c-27 -13 -48 -27 -48 -29 0 -5 99 42 109 51 13 11 -20 0
-61 -22z"/>
<path d="M669 6549 l-24 -20 28 17 c15 9 27 18 27 20 0 8 -8 4 -31 -17z"/>
<path d="M572 6475 c-33 -31 -75 -75 -93 -98 -25 -33 -22 -31 17 12 27 29 72
73 99 97 28 24 47 44 44 44 -3 0 -33 -25 -67 -55z"/>
<path d="M5260 6496 c0 -2 8 -10 18 -17 15 -13 16 -12 3 4 -13 16 -21 21 -21
13z"/>
<path d="M3616 6434 c-3 -9 -6 -139 -6 -290 l0 -274 -42 0 c-44 0 -78 -14 -65
-26 4 -4 35 -7 69 -8 l63 -1 3 308 c2 280 -3 342 -22 291z"/>
<path d="M4324 6428 c3 -13 0 -48 -6 -78 -22 -110 18 -188 103 -197 72 -8 101
13 151 110 37 70 47 82 71 85 38 5 57 -14 57 -53 0 -41 -31 -80 -75 -95 -19
-6 -35 -18 -35 -26 0 -11 16 -14 70 -14 54 0 70 3 70 14 0 8 -4 17 -9 20 -5 3
-3 23 5 43 7 21 13 47 14 58 0 41 -23 99 -50 127 -23 23 -37 28 -75 28 -72 0
-101 -23 -146 -116 -41 -87 -55 -99 -94 -84 -60 23 -34 118 43 155 64 31 55
45 -29 45 -69 0 -71 -1 -65 -22z"/>
<path d="M5350 6406 c0 -2 8 -10 18 -17 15 -13 16 -12 3 4 -13 16 -21 21 -21
13z"/>
<path d="M2834 6385 c-79 -17 -130 -44 -175 -92 -51 -53 -71 -97 -77 -169 -7
-94 20 -157 91 -205 l32 -22 -26 29 c-57 62 -78 141 -58 217 6 26 15 47 20 47
5 0 9 9 9 19 0 24 48 83 61 75 13 -8 69 28 62 39 -3 6 -1 7 6 3 6 -4 43 3 83
15 65 21 77 22 152 11 187 -27 306 -130 428 -372 49 -96 56 -83 11 20 -95 217
-255 361 -433 389 -81 13 -110 13 -186 -4z"/>
<path d="M4696 6082 l-17 -33 -157 3 c-152 3 -157 4 -167 26 -5 12 -15 22 -22
22 -10 0 -13 -27 -13 -105 0 -84 3 -105 14 -105 8 0 17 9 21 19 8 25 45 30
173 23 95 -5 104 -7 122 -30 25 -31 25 -64 1 -86 -15 -14 -38 -16 -152 -14
-128 3 -134 4 -144 26 -5 12 -15 22 -22 22 -10 0 -13 -27 -13 -105 0 -84 3
-105 14 -105 8 0 18 9 21 20 6 19 15 20 148 20 115 0 149 3 177 18 64 31 73
127 20 195 -26 32 -25 35 7 39 26 3 27 5 24 58 -1 30 -6 71 -10 90 l-7 35 -18
-33z"/>
<path d="M2171 5915 c-3 -102 59 -242 146 -330 91 -94 215 -155 538 -270 198
-71 290 -118 356 -184 48 -49 59 -66 70 -116 7 -32 15 -53 17 -46 5 15 -17
109 -34 142 -20 40 -73 87 -144 129 -66 39 -118 60 -365 150 -77 28 -186 74
-242 101 -196 96 -309 235 -333 409 -7 50 -7 52 -9 15z"/>
<path d="M530 5660 c-42 -42 -15 -118 48 -133 31 -7 80 10 92 33 22 41 5 120
-25 120 -12 0 -11 -5 3 -29 16 -28 15 -31 -2 -50 -11 -12 -27 -21 -38 -21 -15
0 -18 8 -18 50 0 43 -3 50 -20 50 -11 0 -29 -9 -40 -20z m40 -55 c0 -26 -18
-33 -37 -14 -16 16 -5 39 18 39 14 0 19 -7 19 -25z"/>
<path d="M4425 5571 c-78 -36 -115 -102 -115 -203 1 -145 105 -242 241 -223
114 16 179 96 179 221 -1 104 -47 184 -123 213 -44 17 -137 13 -182 -8z m220
-135 c68 -29 70 -97 3 -132 -46 -24 -198 -25 -250 -2 -70 31 -72 104 -6 133
45 19 208 20 253 1z"/>
<path d="M3516 5533 c102 -94 157 -228 157 -383 0 -174 -45 -292 -153 -400
-126 -127 -320 -190 -584 -190 -196 0 -371 39 -556 122 -66 31 -86 26 -126
-31 -25 -35 -34 -41 -66 -41 -20 0 -40 -6 -45 -12 -4 -7 -10 138 -13 322 l-5
335 -3 -341 -2 -342 48 -4 c62 -5 77 -1 92 28 8 13 29 33 47 44 30 18 37 18
61 6 52 -26 198 -76 282 -95 125 -30 413 -49 445 -29 10 6 50 13 135 23 43 6
71 16 151 57 20 10 44 18 53 18 9 0 16 4 16 9 0 5 14 20 32 32 17 13 28 17 23
9 -4 -7 11 6 33 28 23 23 42 44 42 46 0 2 15 27 34 55 89 132 117 364 61 521
-32 90 -103 188 -169 231 -24 16 -22 12 10 -18z"/>
<path d="M528 5499 c-24 -13 -24 -80 0 -109 26 -32 90 -38 125 -10 33 26 38
87 9 113 -21 19 -42 23 -24 5 16 -16 15 -53 -1 -67 -28 -22 -72 -24 -97 -3
l-25 20 28 11 c18 7 27 17 25 28 -4 21 -18 25 -40 12z"/>
<path d="M656 5335 c-4 -11 -22 -15 -76 -15 -66 0 -70 -1 -70 -22 0 -24 20
-63 20 -40 0 8 20 12 65 12 37 0 65 -4 65 -10 0 -5 5 -10 10 -10 6 0 10 23 10
50 0 48 -12 66 -24 35z"/>
<path d="M436 5314 c-8 -8 -13 -21 -9 -30 8 -22 47 -13 51 12 4 27 -22 38 -42
18z"/>
<path d="M2244 5245 c-16 -41 128 -277 227 -372 97 -94 134 -118 48 -32 -89
89 -149 177 -218 318 -37 75 -52 99 -57 86z"/>
<path d="M532 5207 c-15 -16 -22 -36 -22 -63 0 -54 31 -84 87 -84 50 0 83 34
83 85 0 18 -9 44 -21 59 -28 35 -95 37 -127 3z m130 -43 c29 -18 -15 -54 -66
-54 -54 0 -86 21 -67 43 7 9 22 18 34 20 23 5 86 -1 99 -9z"/>
<path d="M4688 5088 c-6 -43 -36 -48 -317 -48 l-264 0 7 -46 c3 -26 6 -69 6
-95 0 -56 23 -68 41 -22 14 38 25 43 101 43 l66 0 -14 -47 c-26 -87 6 -179 79
-230 55 -38 173 -46 233 -15 100 51 131 148 79 246 l-24 46 26 0 c25 0 26 1
19 46 -3 26 -6 69 -6 95 0 36 -4 49 -14 49 -8 0 -16 -10 -18 -22z m-36 -206
c13 -27 14 -40 6 -64 -27 -76 -213 -93 -285 -26 -30 28 -30 74 -1 105 21 23
27 23 143 21 l120 -3 17 -33z"/>
<path d="M510 5025 c0 -32 2 -36 15 -25 11 9 22 9 50 0 44 -15 44 -23 0 -39
-28 -10 -39 -10 -50 -1 -13 11 -15 5 -15 -40 0 -50 1 -52 18 -38 9 8 47 27 85
42 37 16 67 34 67 40 0 7 -30 25 -67 40 -38 15 -76 35 -85 43 -17 15 -18 14
-18 -22z"/>
<path d="M660 4860 c0 -6 -28 -10 -63 -10 -36 0 -68 -5 -75 -12 -15 -15 -16
-53 -2 -79 7 -13 7 -19 0 -19 -12 0 -13 -40 -1 -59 6 -9 11 -10 15 -2 9 14
126 15 126 1 0 -5 5 -10 10 -10 6 0 10 20 10 45 0 25 -4 45 -10 45 -5 0 -10
-5 -10 -10 0 -7 -22 -10 -57 -8 -47 2 -58 6 -61 22 -2 10 2 22 10 27 18 12
108 11 108 -1 0 -5 5 -10 10 -10 6 0 10 20 10 45 0 25 -4 45 -10 45 -5 0 -10
-4 -10 -10z"/>
<path d="M430 4595 c0 -53 11 -72 24 -40 4 12 25 15 101 15 76 0 97 -3 101
-15 13 -32 24 -13 24 40 0 30 -4 55 -10 55 -5 0 -10 -7 -10 -15 0 -12 -18 -15
-100 -15 -80 0 -102 3 -106 15 -13 32 -24 13 -24 -40z"/>
<path d="M513 4424 c-3 -9 0 -26 7 -37 9 -15 10 -22 1 -25 -13 -4 -14 -41 -1
-62 6 -10 10 -11 10 -2 0 8 20 12 65 12 37 0 65 -4 65 -10 0 -5 5 -10 10 -10
6 0 10 22 10 49 0 28 -4 53 -10 56 -5 3 -10 -1 -10 -9 0 -13 -12 -16 -53 -16
-59 0 -72 6 -56 26 14 17 4 44 -16 44 -9 0 -18 -7 -22 -16z"/>
<path d="M5185 4285 c-15 -14 -25 -36 -25 -52 0 -31 24 -73 43 -73 8 0 8 3 -1
12 -19 19 -14 55 10 72 30 21 61 20 89 -3 l24 -19 -27 -11 c-16 -6 -28 -17
-28 -25 0 -36 47 -28 56 10 22 88 -79 152 -141 89z"/>
<path d="M527 4252 c-23 -25 -21 -84 2 -113 15 -19 29 -24 66 -24 37 0 51 5
66 24 25 30 25 92 1 114 -26 24 -36 21 -18 -5 9 -12 16 -28 16 -35 0 -18 -29
-43 -51 -43 -16 0 -19 7 -19 50 0 46 -2 50 -23 50 -13 0 -31 -8 -40 -18z m43
-57 c0 -27 -21 -33 -39 -12 -8 10 -7 17 1 25 20 20 38 14 38 -13z"/>
<path d="M1070 4191 l0 -59 88 -16 c158 -29 225 -79 254 -191 10 -39 13 -242
13 -960 0 -843 -1 -915 -18 -975 -10 -36 -29 -81 -42 -102 -33 -49 -114 -88
-215 -101 l-80 -11 0 -56 0 -57 53 -7 c67 -8 880 -8 930 0 l37 7 0 58 0 58
-47 7 c-142 20 -265 84 -310 161 -53 91 -53 89 -53 1033 l0 875 26 -60 c49
-116 214 -534 374 -945 89 -228 229 -589 311 -801 l151 -386 51 -7 c65 -7 185
-8 213 0 17 5 40 52 114 232 99 242 277 673 356 862 13 30 75 181 139 335 64
154 129 312 146 350 16 39 60 144 98 235 l69 164 7 -94 c3 -52 5 -466 3 -920
-3 -752 -5 -830 -21 -877 -32 -97 -107 -143 -254 -159 l-63 -7 0 -57 0 -57 61
-7 c78 -8 1256 -8 1287 0 20 6 22 13 22 64 l0 58 -66 7 c-151 16 -227 64 -255
161 -20 70 -21 1945 -1 2012 8 27 30 61 56 87 38 37 54 45 117 59 41 9 90 17
109 18 l35 3 3 63 3 62 -573 0 -573 0 -99 -248 c-54 -136 -124 -310 -156 -387
-32 -77 -148 -365 -260 -640 -111 -275 -203 -501 -205 -503 -4 -4 -184 452
-382 968 -96 250 -204 534 -241 630 l-68 175 -572 3 -572 2 0 -59z m977 35 c4
-3 -208 -6 -470 -6 -262 0 -478 4 -481 8 -6 10 942 8 951 -2z m-678 -2382
c-25 -27 -89 -64 -111 -64 -7 0 10 12 37 26 28 14 59 34 70 45 29 28 32 23 4
-7z m2322 -8 c-26 -28 -72 -52 -116 -61 -17 -3 -9 3 20 15 28 11 64 31 80 45
38 31 45 32 16 1z m-2454 -62 c-3 -3 -12 -4 -19 -1 -8 3 -5 6 6 6 11 1 17 -2
13 -5z m-44 -11 c-7 -2 -19 -2 -25 0 -7 3 -2 5 12 5 14 0 19 -2 13 -5z"/>
<path d="M5172 4128 c-15 -15 -16 -50 0 -66 9 -9 9 -15 0 -24 -7 -7 -12 -20
-12 -29 0 -21 22 -38 28 -21 2 7 25 12 57 12 35 0 59 5 69 16 18 18 21 66 6
95 -14 26 -50 25 -50 -1 0 -14 7 -20 21 -20 27 0 22 -34 -6 -38 -16 -2 -24 7
-35 40 -12 34 -21 44 -40 46 -14 2 -31 -3 -38 -10z m66 -61 c3 -14 -1 -18 -20
-15 -12 2 -24 11 -26 21 -3 14 1 18 20 15 12 -2 24 -11 26 -21z"/>
<path d="M655 4080 c-3 -5 -32 -10 -64 -10 -31 0 -62 -5 -69 -12 -15 -15 -15
-53 -1 -80 8 -14 8 -23 0 -31 -15 -15 -14 -60 2 -76 10 -11 10 -14 0 -18 -15
-6 -17 -59 -3 -68 6 -3 10 -1 10 4 0 7 26 11 65 11 37 0 65 -4 65 -10 0 -5 5
-10 10 -10 6 0 10 23 10 50 0 48 -12 66 -24 35 -7 -20 -89 -20 -106 0 -24 29
-4 45 55 45 32 0 55 -4 55 -11 0 -5 5 -7 10 -4 6 3 10 24 10 46 0 21 -4 39
-10 39 -5 0 -10 -5 -10 -10 0 -7 -22 -10 -57 -8 -54 3 -58 5 -58 28 0 23 4 25
58 28 35 2 57 -1 57 -8 0 -5 5 -10 10 -10 6 0 10 20 10 45 0 42 -11 58 -25 35z"/>
<path d="M5305 3961 c-3 -6 -30 -11 -60 -11 -71 0 -98 -25 -79 -74 8 -22 21
-20 27 4 4 17 14 20 56 20 44 0 51 -3 51 -20 0 -11 4 -20 9 -20 5 0 11 9 14
20 3 14 14 20 32 20 21 0 26 4 21 16 -3 9 -6 18 -6 20 0 2 -5 4 -12 4 -6 0
-19 7 -29 16 -11 10 -19 12 -24 5z"/>
<path d="M5172 3828 c-15 -15 -16 -54 -1 -64 8 -4 8 -9 0 -17 -6 -6 -11 -21
-11 -33 0 -25 21 -45 28 -26 2 7 25 12 56 12 62 0 86 19 86 67 0 35 -31 80
-48 69 -21 -13 -14 -46 9 -46 27 0 22 -34 -6 -38 -16 -2 -24 7 -35 40 -12 34
-21 44 -40 46 -14 2 -31 -3 -38 -10z m66 -61 c3 -14 -1 -18 -20 -15 -12 2 -24
11 -26 21 -3 14 1 18 20 15 12 -2 24 -11 26 -21z"/>
<path d="M531 3736 c-25 -27 -31 -79 -12 -114 13 -24 70 -45 97 -36 63 23 84
95 43 148 -28 36 -95 37 -128 2z m129 -47 c5 -6 6 -18 3 -25 -10 -26 -98 -33
-129 -9 -19 15 -18 15 6 36 20 17 34 20 69 16 24 -3 47 -11 51 -18z"/>
<path d="M5167 3664 c-11 -11 -8 -94 3 -94 6 0 10 4 10 10 0 5 50 11 118 12
l117 3 -3 35 c-5 43 -11 50 -23 27 -8 -14 -25 -17 -104 -17 -74 0 -96 3 -103
15 -4 9 -11 12 -15 9z"/>
<path d="M510 3550 c0 -15 -7 -20 -25 -20 -33 0 -32 -13 5 -50 33 -34 40 -36
40 -15 0 12 14 15 64 15 43 0 67 5 75 14 16 19 10 68 -7 74 -9 3 -12 -3 -10
-14 3 -17 -5 -19 -59 -22 -58 -3 -63 -1 -63 18 0 11 -4 20 -10 20 -5 0 -10 -9
-10 -20z"/>
<path d="M5214 3550 c-31 -12 -54 -49 -54 -88 0 -84 117 -115 155 -41 23 43
18 77 -14 110 -30 30 -50 34 -87 19z m84 -59 c8 -5 12 -17 10 -27 -7 -38 -119
-37 -126 1 -5 24 15 35 63 35 22 0 46 -4 53 -9z"/>
<path d="M601 3431 c-8 -5 -22 -24 -30 -42 -19 -38 -38 -48 -48 -23 -4 11 1
23 15 35 28 22 28 29 -2 29 -18 0 -25 -6 -27 -27 -7 -46 1 -73 25 -88 31 -21
53 -10 77 37 13 25 26 38 36 36 27 -5 26 -26 -1 -51 -33 -31 -33 -39 1 -35 25
3 28 7 31 51 5 69 -32 106 -77 78z"/>
<path d="M5106 3354 c-24 -24 -22 -118 4 -144 42 -42 79 -18 88 55 5 52 22 61
22 11 0 -38 19 -58 55 -58 15 0 25 -6 25 -15 0 -8 6 -13 12 -11 15 5 21 113 8
139 -15 26 -47 33 -75 15 -16 -11 -26 -12 -31 -5 -3 6 -16 8 -29 5 -14 -4 -28
0 -35 9 -16 19 -25 19 -44 -1z m49 -74 c0 -31 -3 -35 -25 -35 -19 0 -26 6 -28
23 -5 36 5 54 30 50 19 -2 23 -9 23 -38z m153 7 c4 -21 -19 -31 -53 -23 -26 7
-34 31 -12 40 25 10 62 1 65 -17z"/>
<path d="M655 3278 c-6 -15 -20 -18 -76 -18 l-69 0 0 -40 c0 -22 5 -40 10 -40
6 0 10 7 10 15 0 13 11 15 57 13 47 -2 58 -6 61 -22 5 -27 -15 -36 -80 -36
l-58 0 0 -35 c0 -19 5 -35 10 -35 6 0 10 5 10 10 0 6 25 10 56 10 30 0 64 5
75 10 20 11 26 54 9 80 -6 9 -5 17 2 21 7 5 7 19 1 45 -8 30 -12 35 -18 22z"/>
<path d="M5304 3100 c-14 -14 -147 -21 -186 -9 -28 8 -28 7 -28 -38 0 -44 1
-45 18 -30 32 29 52 22 52 -18 0 -49 36 -85 85 -85 60 0 107 64 73 98 -10 10
-10 15 -1 20 7 5 9 19 5 40 -5 25 -10 30 -18 22z m-14 -75 c18 -22 6 -41 -29
-48 -40 -8 -81 7 -81 31 0 10 3 22 7 25 13 13 90 7 103 -8z"/>
<path d="M605 3061 c-2 -4 9 -18 25 -30 75 -55 0 -132 -110 -115 -37 6 -80 35
-80 54 0 22 15 42 41 56 40 20 36 36 -8 32 l-37 -3 -4 -62 c-4 -71 6 -96 51
-123 58 -36 145 -20 181 32 20 28 21 107 1 135 -15 22 -52 36 -60 24z"/>
<path d="M5167 2904 c-11 -11 -8 -94 3 -94 6 0 10 5 10 10 0 6 25 10 55 10 41
0 55 -4 55 -14 0 -8 -5 -16 -12 -18 -19 -7 -1 -38 22 -38 26 0 35 22 21 49 -6
11 -7 22 -3 25 11 6 3 66 -9 66 -4 0 -11 -4 -14 -10 -10 -17 -103 -12 -113 5
-4 9 -11 12 -15 9z"/>
<path d="M523 2753 c-16 -6 -17 -45 -1 -61 9 -9 9 -12 0 -12 -7 0 -12 -14 -12
-35 0 -34 12 -46 25 -25 3 6 33 10 66 10 33 0 59 -4 59 -10 0 -5 5 -10 10 -10
6 0 10 23 10 50 0 28 -4 50 -10 50 -5 0 -10 -7 -10 -15 0 -20 -93 -21 -109 -1
-8 10 -9 16 -1 21 25 16 2 48 -27 38z"/>
<path d="M5181 2714 c-27 -34 -27 -88 -1 -114 79 -79 198 26 129 114 -16 21
-29 26 -64 26 -35 0 -48 -5 -64 -26z m117 -33 c8 -5 12 -17 10 -27 -3 -16 -12
-19 -63 -19 -51 0 -60 3 -63 19 -5 25 14 36 63 36 22 0 46 -4 53 -9z"/>
<path d="M530 2570 c-31 -31 -27 -93 6 -119 83 -66 191 39 125 120 -23 29 -39
19 -18 -11 20 -29 11 -57 -24 -69 l-29 -10 0 55 c0 47 -2 54 -20 54 -11 0 -29
-9 -40 -20z m40 -60 c0 -24 -3 -28 -17 -23 -25 9 -34 25 -21 40 19 23 38 15
38 -17z"/>
<path d="M5182 2527 c-17 -18 -21 -32 -18 -72 3 -28 5 -61 5 -74 1 -20 3 -22
17 -10 11 9 49 13 123 14 l106 0 -3 35 c-4 38 -12 52 -19 33 -3 -7 -19 -13
-36 -13 -30 0 -32 2 -33 37 -1 46 -32 73 -83 73 -26 0 -44 -7 -59 -23z m113
-41 c26 -19 13 -44 -29 -51 -45 -9 -76 2 -76 25 0 36 68 53 105 26z"/>
<path d="M656 2405 c-4 -12 -27 -15 -121 -15 -125 0 -124 1 -105 -60 6 -22 8
-23 15 -7 6 14 21 17 105 17 55 0 102 -4 105 -10 14 -23 25 -7 25 40 0 48 -12
66 -24 35z"/>
<path d="M5305 2341 c-3 -6 -30 -11 -60 -11 -35 0 -59 -5 -69 -16 -18 -17 -21
-51 -6 -74 5 -8 5 -17 0 -20 -5 -3 -5 -21 -1 -40 4 -22 10 -30 14 -22 5 8 33
12 79 12 68 0 70 1 64 23 -3 12 -6 31 -6 41 0 19 -1 19 -13 2 -10 -13 -24 -17
-62 -14 -46 3 -50 5 -50 28 0 24 3 25 67 28 l67 3 -6 32 c-7 38 -9 41 -18 28z"/>
<path d="M660 2290 c0 -6 -47 -10 -120 -10 -131 0 -128 1 -111 -59 6 -21 8
-22 20 -7 19 23 199 24 207 1 12 -31 24 -13 24 35 0 28 -4 50 -10 50 -5 0 -10
-4 -10 -10z"/>
<path d="M536 2169 c-19 -15 -26 -30 -26 -54 0 -47 8 -64 41 -80 40 -21 63
-19 98 11 38 32 43 87 10 123 -12 12 -24 20 -27 16 -3 -3 0 -11 6 -17 19 -19
14 -66 -7 -78 -35 -18 -41 -12 -41 45 0 62 -10 68 -54 34z m34 -64 c0 -28 -21
-33 -40 -10 -15 18 -5 35 21 35 14 0 19 -7 19 -25z"/>
<path d="M5223 2132 c-28 -4 -63 -47 -63 -76 0 -23 26 -66 40 -66 4 0 3 14 -3
31 -11 27 -10 32 7 45 26 18 90 18 106 -1 10 -12 8 -16 -14 -25 -29 -11 -35
-37 -10 -47 21 -8 44 22 44 58 0 53 -49 90 -107 81z"/>
<path d="M567 1989 c-9 -6 -29 -32 -42 -60 -20 -38 -31 -49 -49 -49 -44 0 -41
56 4 80 31 16 24 32 -12 28 -33 -3 -33 -4 -36 -61 -4 -62 6 -83 45 -98 38 -14
70 6 98 61 14 28 32 53 41 57 22 8 44 -16 44 -49 0 -22 -7 -33 -30 -46 -40
-23 -38 -34 7 -30 l37 3 4 62 c3 56 1 65 -22 88 -26 26 -59 31 -89 14z"/>
<path d="M5306 1965 c-3 -9 -26 -15 -67 -17 -69 -3 -86 -17 -75 -61 8 -31 26
-36 26 -7 0 18 7 20 54 20 47 0 54 -3 60 -22 l7 -23 9 23 c6 14 18 22 35 22
28 0 32 13 9 32 -8 7 -24 21 -34 30 -15 13 -19 14 -24 3z"/>
<path d="M5162 1796 c-6 -92 71 -118 104 -35 11 26 22 39 32 37 26 -5 25 -26
-4 -53 l-27 -25 30 0 c28 0 30 3 31 41 2 52 -12 79 -43 79 -28 0 -53 -22 -61
-56 -4 -15 -13 -24 -25 -24 -27 0 -25 44 4 63 l22 16 -30 0 c-28 1 -30 -1 -33
-43z"/>
<path d="M723 1434 c4 -4 24 -13 44 -20 30 -10 33 -10 22 0 -15 14 -80 33 -66
20z"/>
<path d="M1664 1426 c-18 -8 -34 -24 -37 -37 -9 -34 -8 -581 1 -596 4 -6 6 91
4 215 -2 125 -1 264 3 310 6 73 10 84 28 92 65 24 73 29 52 29 -11 0 -34 -6
-51 -13z"/>
<path d="M862 1080 c-1 -146 2 -270 6 -277 4 -6 6 89 4 210 -4 335 -8 363 -10
67z"/>
<path d="M1427 1283 c-47 -107 -134 -307 -187 -430 -47 -108 -56 -123 -77
-123 -14 0 -21 -4 -18 -10 3 -5 16 -10 28 -10 20 0 38 36 156 310 73 171 131
313 129 316 -3 2 -17 -22 -31 -53z"/>
<path d="M4160 1220 l0 -40 -49 0 c-28 0 -53 -4 -56 -10 -4 -6 17 -10 54 -10
l61 0 0 50 c0 28 -2 50 -5 50 -3 0 -5 -18 -5 -40z"/>
<path d="M1110 1205 c0 -5 5 -17 10 -25 5 -8 10 -10 10 -5 0 6 -5 17 -10 25
-5 8 -10 11 -10 5z"/>
<path d="M1975 1202 c-24 -5 -45 -21 -45 -34 0 -5 7 -2 16 6 17 18 79 22 89 6
3 -5 11 -10 17 -10 7 0 7 5 -1 14 -13 16 -47 24 -76 18z"/>
<path d="M3221 1198 c-14 -7 -27 -19 -29 -27 -4 -11 1 -10 19 2 30 22 68 22
99 1 l25 -17 -20 21 c-26 27 -64 35 -94 20z"/>
<path d="M3845 1201 c-41 -17 -59 -50 -63 -115 -2 -36 1 -72 7 -82 8 -15 9 -9
5 26 -7 52 9 122 33 146 12 12 27 15 57 11 39 -5 40 -5 16 8 -29 16 -29 16
-55 6z"/>
<path d="M4420 1175 c-25 -27 -55 -124 -41 -138 4 -4 11 14 15 42 8 63 45 111
86 111 16 0 32 -4 35 -10 3 -5 12 -10 18 -10 7 0 3 7 -7 15 -31 23 -79 19
-106 -10z"/>
<path d="M4992 1160 c0 -19 2 -27 5 -17 2 9 2 25 0 35 -3 9 -5 1 -5 -18z"/>
<path d="M2370 1172 c0 -6 9 -12 20 -15 11 -3 20 -3 20 -1 0 2 -9 8 -20 14
-11 6 -20 7 -20 2z"/>
<path d="M4780 1169 c0 -5 8 -9 18 -9 10 0 24 -6 32 -12 12 -11 12 -10 2 3
-14 19 -52 32 -52 18z"/>
<path d="M5207 1143 c-9 -46 -48 -69 -86 -53 -16 6 -32 18 -35 26 -10 27 -55
16 -76 -18 -17 -29 -20 -51 -20 -175 0 -78 3 -144 8 -146 4 -3 6 52 4 121 -4
139 7 195 40 213 17 9 24 7 45 -15 28 -30 82 -35 107 -10 18 17 30 57 24 76
-3 7 -7 -2 -11 -19z"/>
<path d="M2613 1140 c-18 -11 -35 -30 -37 -42 -8 -41 -12 -252 -6 -293 4 -23
8 30 9 123 1 161 1 163 27 187 35 33 75 40 116 20 l33 -16 -24 21 c-29 25 -77
26 -118 0z"/>
<path d="M1935 1110 c-13 -44 -50 -60 -97 -42 -28 10 -30 10 -17 -3 8 -8 28
-17 45 -21 43 -8 87 29 82 71 l-3 29 -10 -34z"/>
<path d="M3200 1117 c0 -13 -8 -31 -18 -40 -19 -17 -70 -23 -88 -9 -5 4 -1 -1
9 -10 41 -38 107 -5 107 52 0 17 -2 30 -5 30 -3 0 -5 -11 -5 -23z"/>
<path d="M2212 985 c0 -82 4 -161 8 -175 5 -15 8 38 8 130 0 85 -3 164 -8 175
-5 12 -8 -38 -8 -130z"/>
<path d="M2902 953 c-1 -94 1 -174 6 -176 4 -3 6 47 4 111 -4 216 -8 238 -10
65z"/>
<path d="M3484 955 c0 -88 2 -123 3 -77 2 46 2 118 0 160 -1 42 -3 5 -3 -83z"/>
<path d="M4092 1069 c-1 -88 -45 -134 -151 -159 -29 -7 -75 -10 -101 -7 -33 4
-54 1 -69 -9 -22 -16 -29 -54 -10 -54 5 0 8 4 4 9 -3 5 2 17 11 25 11 12 36
16 92 16 42 0 94 5 115 11 83 23 139 108 119 181 -9 32 -9 32 -10 -13z"/>
<path d="M4701 1043 l-1 -43 -160 0 -160 0 1 -42 c0 -24 4 -52 9 -63 5 -13 6
0 3 33 l-6 52 44 1 c24 1 97 1 161 -1 133 -2 138 0 120 67 l-10 38 -1 -42z"/>
<path d="M2002 974 c-32 -16 -58 -37 -67 -55 -16 -29 -20 -95 -7 -102 4 -3 7
14 7 38 0 52 29 88 93 117 40 18 52 28 34 28 -4 0 -32 -12 -60 -26z"/>
<path d="M3275 981 c-58 -27 -86 -62 -92 -114 -3 -27 -1 -47 6 -51 7 -5 11 7
11 37 0 57 26 91 94 122 28 13 44 24 36 24 -8 0 -33 -8 -55 -18z"/>
<path d="M3692 946 c21 -20 43 -36 50 -35 7 0 5 5 -6 12 -10 7 -33 23 -50 36
-25 19 -24 17 6 -13z"/>
<path d="M4679 801 c-77 -111 -291 -116 -391 -9 -17 18 -26 24 -20 13 51 -96
224 -137 339 -80 44 23 79 56 107 103 17 29 -11 8 -35 -27z"/>
<path d="M2036 755 c-35 -28 -106 -48 -144 -39 -15 4 -43 16 -62 27 -30 18
-33 18 -21 3 44 -54 142 -62 213 -17 44 28 68 51 51 51 -4 -1 -21 -11 -37 -25z"/>
<path d="M3287 748 c-63 -41 -134 -44 -192 -8 -30 18 -36 19 -26 6 54 -66 168
-61 254 10 40 34 21 29 -36 -8z"/>
<path d="M2268 744 c-44 -31 -113 -36 -155 -10 l-28 17 28 -25 c39 -36 103
-36 157 0 22 15 40 31 40 35 0 12 -1 12 -42 -17z"/>
<path d="M3555 761 c-24 -41 -141 -57 -176 -25 -10 9 -21 15 -24 12 -10 -9 34
-40 67 -47 18 -4 47 -4 63 1 35 9 93 53 84 63 -4 3 -10 1 -14 -4z"/>
<path d="M3664 751 c4 -6 22 -18 39 -27 30 -14 31 -14 12 1 -30 25 -59 39 -51
26z"/>
<path d="M2498 733 c-185 -5 -183 -23 2 -23 118 0 140 2 140 15 0 8 -1 14 -2
13 -2 -1 -65 -4 -140 -5z"/>
<path d="M2845 733 c-182 -5 -188 -23 -7 -23 120 0 142 2 142 15 0 8 -1 14 -2
13 -2 -1 -61 -4 -133 -5z"/>
<path d="M4928 733 c-198 -5 -196 -23 2 -23 127 0 150 2 150 15 0 8 -1 14 -2
13 -2 -1 -69 -4 -150 -5z"/>
<path d="M720 720 c0 -6 48 -10 125 -10 77 0 125 4 125 10 0 6 -48 10 -125 10
-77 0 -125 -4 -125 -10z"/>
<path d="M1370 720 c0 -6 65 -10 175 -10 110 0 175 4 175 10 0 6 -65 10 -175
10 -110 0 -175 -4 -175 -10z"/>
<path d="M4148 689 c8 -79 -46 -146 -140 -174 -106 -31 -311 -16 -368 28 -9 6
-4 0 11 -14 90 -89 425 -52 489 54 20 32 28 131 12 141 -4 2 -6 -13 -4 -35z"/>
<path d="M3755 685 c-25 -24 -35 -87 -17 -99 5 -3 7 7 4 22 -2 18 4 37 18 55
21 26 25 27 111 27 58 0 103 -5 127 -15 34 -15 36 -15 21 0 -22 22 -80 34
-167 35 -64 0 -76 -3 -97 -25z"/>
</g>
</svg>
