<?xml version="1.0" encoding="UTF-8" standalone="no"?>
<svg
   version="1.0"
   width="665pt"
   height="451.00839pt"
   viewBox="0 0 665 451.00839"
   preserveAspectRatio="xMidYMid"
   id="svg24"
   sodipodi:docname="logo_myPortFolio.svg"
   inkscape:version="1.4 (86a8ad7, 2024-10-11)"
   xmlns:inkscape="http://www.inkscape.org/namespaces/inkscape"
   xmlns:sodipodi="http://sodipodi.sourceforge.net/DTD/sodipodi-0.dtd"
   xmlns:xlink="http://www.w3.org/1999/xlink"
   xmlns="http://www.w3.org/2000/svg"
   xmlns:svg="http://www.w3.org/2000/svg">
  <defs
     id="defs24">
    <linearGradient
       id="linearGradient24"
       inkscape:collect="always">
      <stop
         style="stop-color:#8283ef;stop-opacity:1;"
         offset="0.1570248"
         id="stop24" />
      <stop
         style="stop-color:#178286;stop-opacity:0.99607843;"
         offset="1"
         id="stop25" />
    </linearGradient>
    <linearGradient
       inkscape:collect="always"
       xlink:href="#linearGradient24"
       id="linearGradient25"
       x1="4300"
       y1="5375.042"
       x2="10950"
       y2="5375.042"
       gradientUnits="userSpaceOnUse" />
    <linearGradient
       inkscape:collect="always"
       xlink:href="#linearGradient24"
       id="linearGradient26"
       gradientUnits="userSpaceOnUse"
       x1="4300"
       y1="5375.042"
       x2="10950"
       y2="5375.042" />
    <linearGradient
       inkscape:collect="always"
       xlink:href="#linearGradient24"
       id="linearGradient27"
       gradientUnits="userSpaceOnUse"
       x1="4300"
       y1="5375.042"
       x2="10950"
       y2="5375.042" />
    <linearGradient
       inkscape:collect="always"
       xlink:href="#linearGradient24"
       id="linearGradient28"
       gradientUnits="userSpaceOnUse"
       x1="4300"
       y1="5375.042"
       x2="10950"
       y2="5375.042" />
    <linearGradient
       inkscape:collect="always"
       xlink:href="#linearGradient24"
       id="linearGradient29"
       gradientUnits="userSpaceOnUse"
       x1="4300"
       y1="5375.042"
       x2="10950"
       y2="5375.042" />
    <linearGradient
       inkscape:collect="always"
       xlink:href="#linearGradient24"
       id="linearGradient30"
       gradientUnits="userSpaceOnUse"
       x1="4300"
       y1="5375.042"
       x2="10950"
       y2="5375.042" />
    <linearGradient
       inkscape:collect="always"
       xlink:href="#linearGradient24"
       id="linearGradient31"
       gradientUnits="userSpaceOnUse"
       x1="4300"
       y1="5375.042"
       x2="10950"
       y2="5375.042" />
    <linearGradient
       inkscape:collect="always"
       xlink:href="#linearGradient24"
       id="linearGradient32"
       gradientUnits="userSpaceOnUse"
       x1="4300"
       y1="5375.042"
       x2="10950"
       y2="5375.042" />
    <linearGradient
       inkscape:collect="always"
       xlink:href="#linearGradient24"
       id="linearGradient33"
       gradientUnits="userSpaceOnUse"
       x1="4300"
       y1="5375.042"
       x2="10950"
       y2="5375.042" />
    <linearGradient
       inkscape:collect="always"
       xlink:href="#linearGradient24"
       id="linearGradient34"
       gradientUnits="userSpaceOnUse"
       x1="4300"
       y1="5375.042"
       x2="10950"
       y2="5375.042" />
    <linearGradient
       inkscape:collect="always"
       xlink:href="#linearGradient24"
       id="linearGradient35"
       gradientUnits="userSpaceOnUse"
       x1="4300"
       y1="5375.042"
       x2="10950"
       y2="5375.042" />
    <linearGradient
       inkscape:collect="always"
       xlink:href="#linearGradient24"
       id="linearGradient36"
       gradientUnits="userSpaceOnUse"
       x1="4300"
       y1="5375.042"
       x2="10950"
       y2="5375.042" />
    <linearGradient
       inkscape:collect="always"
       xlink:href="#linearGradient24"
       id="linearGradient37"
       gradientUnits="userSpaceOnUse"
       x1="4300"
       y1="5375.042"
       x2="10950"
       y2="5375.042" />
    <linearGradient
       inkscape:collect="always"
       xlink:href="#linearGradient24"
       id="linearGradient38"
       gradientUnits="userSpaceOnUse"
       x1="4300"
       y1="5375.042"
       x2="10950"
       y2="5375.042" />
    <linearGradient
       inkscape:collect="always"
       xlink:href="#linearGradient24"
       id="linearGradient39"
       gradientUnits="userSpaceOnUse"
       x1="4300"
       y1="5375.042"
       x2="10950"
       y2="5375.042" />
    <linearGradient
       inkscape:collect="always"
       xlink:href="#linearGradient24"
       id="linearGradient40"
       gradientUnits="userSpaceOnUse"
       x1="4300"
       y1="5375.042"
       x2="10950"
       y2="5375.042" />
    <linearGradient
       inkscape:collect="always"
       xlink:href="#linearGradient24"
       id="linearGradient41"
       gradientUnits="userSpaceOnUse"
       x1="4300"
       y1="5375.042"
       x2="10950"
       y2="5375.042" />
    <linearGradient
       inkscape:collect="always"
       xlink:href="#linearGradient24"
       id="linearGradient42"
       gradientUnits="userSpaceOnUse"
       x1="4300"
       y1="5375.042"
       x2="10950"
       y2="5375.042" />
    <linearGradient
       inkscape:collect="always"
       xlink:href="#linearGradient24"
       id="linearGradient43"
       gradientUnits="userSpaceOnUse"
       x1="4300"
       y1="5375.042"
       x2="10950"
       y2="5375.042" />
    <linearGradient
       inkscape:collect="always"
       xlink:href="#linearGradient24"
       id="linearGradient44"
       gradientUnits="userSpaceOnUse"
       x1="4300"
       y1="5375.042"
       x2="10950"
       y2="5375.042" />
    <linearGradient
       inkscape:collect="always"
       xlink:href="#linearGradient24"
       id="linearGradient45"
       gradientUnits="userSpaceOnUse"
       x1="4300"
       y1="5375.042"
       x2="10950"
       y2="5375.042" />
    <linearGradient
       inkscape:collect="always"
       xlink:href="#linearGradient24"
       id="linearGradient46"
       gradientUnits="userSpaceOnUse"
       x1="4300"
       y1="5375.042"
       x2="10950"
       y2="5375.042" />
    <linearGradient
       inkscape:collect="always"
       xlink:href="#linearGradient24"
       id="linearGradient47"
       gradientUnits="userSpaceOnUse"
       x1="4300"
       y1="5375.042"
       x2="10950"
       y2="5375.042" />
    <linearGradient
       inkscape:collect="always"
       xlink:href="#linearGradient24"
       id="linearGradient48"
       gradientUnits="userSpaceOnUse"
       x1="4300"
       y1="5375.042"
       x2="10950"
       y2="5375.042" />
    <linearGradient
       inkscape:collect="always"
       xlink:href="#linearGradient24"
       id="linearGradient49"
       gradientUnits="userSpaceOnUse"
       x1="4300"
       y1="5375.042"
       x2="10950"
       y2="5375.042" />
  </defs>
  <sodipodi:namedview
     id="namedview24"
     pagecolor="#ffffff"
     bordercolor="#000000"
     borderopacity="0.25"
     inkscape:showpageshadow="2"
     inkscape:pageopacity="0.0"
     inkscape:pagecheckerboard="0"
     inkscape:deskcolor="#d1d1d1"
     inkscape:document-units="pt"
     inkscape:zoom="0.59106445"
     inkscape:cx="524.47749"
     inkscape:cy="367.98017"
     inkscape:window-width="1920"
     inkscape:window-height="1017"
     inkscape:window-x="-8"
     inkscape:window-y="-8"
     inkscape:window-maximized="1"
     inkscape:current-layer="g24" />
  <g
     transform="matrix(0.1,0,0,-0.1,-430,763.0084)"
     fill="#000000"
     stroke="none"
     id="g24"
     style="fill:url(#linearGradient25)">
    <path
       d="m 5968,7607 c -119,-41 -221,-126 -273,-227 -57,-112 -58,-122 -64,-580 -6,-420 -6,-426 -29,-468 -53,-99 -138,-165 -262,-202 l -55,-16 -3,-67 c -3,-60 -1,-67 20,-80 13,-8 39,-18 58,-22 60,-12 149,-66 199,-120 76,-84 81,-111 81,-425 0,-147 5,-291 10,-321 36,-191 187,-334 382,-362 104,-15 108,-12 108,72 0,76 3,73 -75,86 -53,9 -113,45 -158,94 -78,86 -87,135 -87,476 0,291 -5,328 -61,421 -24,41 -53,70 -103,105 -38,27 -73,49 -77,49 -4,0 -20,5 -36,11 l -27,10 43,20 c 106,47 187,133 233,249 21,53 22,71 28,490 5,429 5,436 28,478 35,66 88,119 150,149 45,22 73,28 149,31 59,3 96,9 103,17 6,8 10,43 8,82 l -3,68 -110,2 c -93,2 -120,-1 -177,-20 z"
       id="path1"
       style="fill:url(#linearGradient26)" />
    <path
       d="m 9097,7623 c -4,-3 -7,-39 -7,-79 0,-85 -6,-80 121,-87 94,-5 156,-32 221,-99 85,-88 88,-102 88,-521 0,-199 5,-393 10,-432 21,-143 116,-277 235,-331 30,-14 55,-27 55,-29 0,-2 -29,-17 -65,-33 -82,-39 -148,-105 -188,-190 l -32,-67 -6,-320 c -4,-201 -10,-334 -18,-357 -32,-101 -122,-184 -225,-207 l -57,-13 3,-71 3,-72 33,-3 c 130,-13 310,95 379,225 54,101 56,116 62,458 l 6,320 29,53 c 50,89 136,152 251,182 71,19 75,24 75,96 0,69 -5,75 -69,88 -63,12 -161,68 -206,118 -83,93 -85,104 -85,541 0,413 -5,467 -54,574 -31,67 -133,171 -202,206 -28,14 -78,33 -111,41 -60,16 -233,22 -246,9 z"
       id="path2"
       style="fill:url(#linearGradient27)" />
    <path
       d="m 7297,7230 c -46,-14 -93,-56 -116,-103 -18,-38 -21,-61 -21,-185 v -141 l -317,-3 -318,-3 -50,-27 c -65,-34 -127,-101 -151,-164 -18,-47 -19,-85 -19,-774 v -725 l 28,-57 c 32,-65 89,-121 156,-152 l 46,-21 h 1135 1135 l 47,22 c 70,32 122,78 154,136 l 29,52 3,715 c 3,640 1,722 -14,777 -21,83 -73,141 -162,185 l -66,33 -293,3 -293,3 v 127 c 0,70 -5,145 -11,167 -15,52 -82,119 -134,134 -48,13 -725,14 -768,1 z m 739,-163 c 22,-26 24,-36 24,-148 v -119 h -375 -375 v 121 c 0,120 0,121 30,150 l 29,30 322,-3 321,-3 z m 767,-435 c 20,-13 46,-40 59,-60 22,-36 23,-46 26,-288 l 3,-250 -273,-63 c -501,-116 -568,-131 -583,-131 -12,0 -15,16 -15,83 0,104 -25,160 -85,195 -39,22 -47,22 -267,20 -211,-3 -228,-4 -254,-24 -59,-43 -69,-68 -72,-175 l -4,-100 -41,6 c -23,4 -96,20 -162,35 -66,15 -245,56 -397,91 l -278,63 v 243 c 0,267 3,285 59,337 25,25 42,30 98,35 38,4 536,6 1109,6 l 1040,-1 z m -951,-649 c 16,-14 18,-33 18,-161 0,-199 7,-192 -192,-192 -197,0 -188,-9 -188,189 0,191 -11,181 194,181 125,0 152,-3 168,-17 z M 6602,5861 c 68,-16 259,-61 426,-100 167,-39 305,-71 307,-71 3,0 5,-20 5,-43 0,-33 8,-55 31,-86 48,-67 67,-71 317,-71 211,0 220,1 253,23 50,34 79,82 79,133 0,32 4,44 18,48 9,3 118,28 242,56 124,28 308,71 409,96 101,24 187,44 192,44 5,0 9,-156 9,-363 0,-361 0,-364 -23,-408 -18,-33 -37,-51 -76,-71 l -53,-28 H 7675 6612 l -53,28 c -39,20 -58,38 -76,71 -23,44 -23,47 -23,408 0,218 4,363 9,363 5,0 65,-13 133,-29 z"
       id="path3"
       style="fill:url(#linearGradient28)" />
    <path
       d="m 4525,4301 c -68,-30 -78,-57 -85,-208 -6,-152 -15,-172 -93,-212 -38,-19 -47,-28 -47,-50 0,-23 8,-30 60,-53 71,-31 80,-48 80,-154 0,-124 32,-169 131,-185 66,-11 81,-4 77,34 -3,27 -8,32 -37,38 -55,11 -64,28 -71,134 -7,110 -21,136 -89,171 l -43,21 43,24 c 74,42 83,63 89,208 5,140 10,153 66,173 29,10 34,17 34,45 0,32 -2,33 -37,33 -21,0 -56,-9 -78,-19 z"
       id="path4"
       style="fill:url(#linearGradient29)" />
    <path
       d="m 10610,4286 c 0,-29 4,-34 28,-39 16,-3 39,-15 52,-25 23,-19 25,-28 30,-150 6,-120 8,-132 32,-164 15,-20 41,-41 57,-48 39,-16 39,-24 2,-40 -63,-26 -90,-86 -91,-201 0,-62 -26,-109 -60,-109 -35,0 -50,-12 -50,-40 0,-34 25,-42 87,-31 90,17 123,66 123,180 0,113 22,147 113,175 12,4 17,15 17,38 -1,30 -6,35 -51,57 -68,31 -79,59 -79,198 0,137 -17,180 -82,212 -24,11 -63,21 -86,21 -41,0 -42,-1 -42,-34 z"
       id="path5"
       style="fill:url(#linearGradient30)" />
    <path
       d="m 4758,4164 c -77,-41 -74,-167 4,-210 35,-20 99,-17 136,6 103,63 56,221 -66,220 -26,-1 -59,-7 -74,-16 z m 118,-60 c 30,-29 27,-67 -8,-96 -45,-39 -111,-7 -111,52 0,65 72,92 119,44 z"
       id="path6"
       style="fill:url(#linearGradient31)" />
    <path
       d="m 5114,4148 c -26,-28 -308,-377 -367,-454 l -19,-24 h 44 c 42,0 45,2 102,77 33,42 121,151 196,243 75,92 140,172 144,178 5,8 -5,12 -31,12 -31,0 -45,-7 -69,-32 z"
       id="path7"
       style="fill:url(#linearGradient32)" />
    <path
       d="m 5610,3925 v -255 h 40 40 v 203 202 l 71,-125 c 84,-149 85,-150 115,-150 19,0 35,22 96,130 l 73,130 3,-195 2,-195 h 45 45 l -2,253 -3,252 h -59 -59 l -68,-125 c -37,-68 -71,-126 -76,-127 -4,-2 -37,54 -73,125 l -65,127 -62,3 -63,3 z"
       id="path8"
       style="fill:url(#linearGradient33)" />
    <path
       d="m 6840,3925 v -255 h 45 45 v 84 84 l 83,4 c 107,4 154,27 185,88 18,35 22,57 19,98 -5,64 -28,99 -87,130 -39,19 -59,22 -167,22 h -123 z m 249,160 c 33,-16 41,-33 41,-80 0,-25 -8,-40 -31,-59 -26,-23 -40,-26 -100,-26 h -69 v 90 90 h 65 c 38,0 78,-6 94,-15 z"
       id="path9"
       style="fill:url(#linearGradient34)" />
    <path
       d="m 8470,3925 v -255 h 40 39 l 3,98 3,97 98,3 97,3 v 34 35 h -100 -100 v 80 79 l 128,3 127,3 v 35 35 l -167,3 -168,2 z"
       id="path10"
       style="fill:url(#linearGradient35)" />
    <path
       d="m 9250,3925 v -255 h 40 40 v 255 255 h -40 -40 z"
       id="path11"
       style="fill:url(#linearGradient36)" />
    <path
       d="m 9429,4159 c -18,-34 3,-69 41,-69 22,0 33,6 41,24 16,35 -3,66 -41,66 -20,0 -33,-7 -41,-21 z"
       id="path12"
       style="fill:url(#linearGradient37)" />
    <path
       d="m 10174,4170 c -39,-15 -64,-59 -64,-109 0,-53 18,-84 60,-106 61,-31 147,-9 175,46 26,49 15,116 -24,151 -25,23 -40,28 -79,27 -26,0 -57,-4 -68,-9 z m 106,-60 c 41,-41 12,-120 -45,-120 -31,0 -75,41 -75,70 0,29 44,70 75,70 14,0 34,-9 45,-20 z"
       id="path13"
       style="fill:url(#linearGradient38)" />
    <path
       d="m 10479,4111 c -30,-37 -112,-139 -184,-226 -71,-86 -141,-170 -154,-186 l -24,-29 h 44 44 l 95,117 c 268,331 308,382 302,387 -3,3 -20,6 -37,6 -28,0 -40,-9 -86,-69 z"
       id="path14"
       style="fill:url(#linearGradient39)" />
    <path
       d="m 8040,4085 v -55 h -41 c -33,0 -40,-3 -35,-16 3,-9 6,-24 6,-34 0,-14 9,-20 33,-22 l 32,-3 5,-128 c 4,-112 7,-130 24,-143 28,-20 82,-28 119,-17 28,8 32,13 32,43 0,34 -1,35 -33,32 -55,-6 -62,8 -62,119 v 99 h 50 50 v 35 35 h -50 -50 v 55 55 h -40 -40 z"
       id="path15"
       style="fill:url(#linearGradient40)" />
    <path
       d="m 7387,4028 c -102,-28 -156,-160 -108,-263 22,-48 44,-69 94,-90 91,-38 198,1 243,88 23,43 21,135 -4,182 -35,70 -137,108 -225,83 z m 114,-78 c 28,-15 49,-63 49,-110 0,-60 -42,-100 -102,-100 -52,0 -80,22 -98,75 -30,92 67,180 151,135 z"
       id="path16"
       style="fill:url(#linearGradient41)" />
    <path
       d="m 7855,4031 c -11,-5 -30,-19 -42,-30 l -23,-22 v 26 c 0,23 -4,25 -40,25 h -40 v -180 -180 h 40 40 v 95 c 0,140 24,185 100,185 30,0 31,1 28,43 -3,45 -21,56 -63,38 z"
       id="path17"
       style="fill:url(#linearGradient42)" />
    <path
       d="m 8923,4029 c -78,-23 -134,-126 -118,-218 20,-120 154,-185 271,-132 67,31 97,85 95,177 0,66 -29,125 -74,153 -39,24 -128,35 -174,20 z m 138,-98 c 25,-25 29,-37 29,-81 0,-44 -4,-56 -29,-81 -24,-23 -38,-29 -73,-29 -66,1 -99,37 -100,109 -1,72 34,110 100,111 35,0 49,-6 73,-29 z"
       id="path18"
       style="fill:url(#linearGradient43)" />
    <path
       d="m 9707,4025 c -75,-26 -117,-88 -117,-173 0,-64 13,-99 53,-140 74,-76 215,-66 281,21 54,71 45,200 -19,256 -56,49 -127,62 -198,36 z m 138,-89 c 26,-27 41,-82 31,-122 -19,-72 -114,-100 -173,-50 -25,22 -28,31 -28,86 0,55 3,64 28,86 39,33 108,34 142,0 z"
       id="path19"
       style="fill:url(#linearGradient44)" />
    <path
       d="m 6285,3877 c 34,-84 67,-163 74,-175 10,-18 6,-32 -24,-92 -19,-38 -35,-74 -35,-80 0,-5 18,-10 40,-10 35,0 43,5 60,32 17,29 200,460 200,473 0,3 -18,5 -41,5 -39,0 -41,-2 -63,-52 -13,-29 -36,-86 -51,-127 -19,-50 -30,-69 -36,-60 -5,8 -27,65 -50,127 l -42,112 h -47 -47 z"
       id="path20"
       style="fill:url(#linearGradient45)" />
    <path
       d="m 9430,3850 v -180 h 40 40 v 180 180 h -40 -40 z"
       id="path21"
       style="fill:url(#linearGradient46)" />
    <path
       d="m 5094,3884 c -110,-54 -64,-224 61,-224 94,0 153,97 110,180 -29,55 -107,76 -171,44 z m 109,-62 c 38,-33 6,-112 -46,-112 -12,0 -33,7 -45,16 -33,23 -28,93 8,111 28,14 56,9 83,-15 z"
       id="path22"
       style="fill:url(#linearGradient47)" />
    <path
       d="m 10464,3886 c -44,-19 -64,-53 -64,-106 0,-52 18,-83 60,-105 84,-43 180,13 180,105 0,92 -88,144 -176,106 z m 96,-56 c 40,-40 12,-120 -42,-120 -29,0 -42,9 -57,37 -17,33 -14,51 14,78 29,30 58,32 85,5 z"
       id="path23"
       style="fill:url(#linearGradient48)" />
    <path
       d="m 6320,3210 c -27,-27 -25,-44 6,-69 l 27,-21 h 1326 c 1184,0 1329,2 1349,16 28,20 30,69 3,84 -13,7 -454,10 -1355,10 -1323,0 -1336,0 -1356,-20 z"
       id="path24"
       style="fill:url(#linearGradient49)"
       sodipodi:nodetypes="sccsccss" />
  </g>
</svg>
