<!DOCTYPE svg PUBLIC "-//W3C//DTD SVG 1.1//EN" "http://www.w3.org/Graphics/SVG/1.1/DTD/svg11.dtd">
<!-- Uploaded to: SVG Repo, www.svgrepo.com, Transformed by: SVG Repo Mixer Tools -->
<svg version="1.1" id="Layer_1" xmlns="http://www.w3.org/2000/svg" xmlns:xlink="http://www.w3.org/1999/xlink" viewBox="0 0 392.566 392.566" xml:space="preserve" width="800px" height="800px" fill="#000000">
<g id="SVGRepo_bgCarrier" stroke-width="0"/>
<g id="SVGRepo_tracerCarrier" stroke-linecap="round" stroke-linejoin="round"/>
<g id="SVGRepo_iconCarrier"> <path style="fill:#a5e7f8;" d="M221.37,22.077C129.896,20.913,66.025,86.659,63.18,168.566c0,0.646-0.065,1.164-0.065,1.745 c0,1.422-0.323,2.78-0.776,4.073l-24.63,60.444h39.952c6.012,0,10.925,4.848,10.925,10.925v41.826 c0,14.093,11.442,25.471,25.471,25.471h39.176c6.012,0,10.925,4.848,10.925,10.925v46.739h162.069 c1.034-54.626,9.632-105.374,25.729-151.079c6.335-17.907,9.051-36.719,8.275-55.855C356.934,88.986,295.972,26.796,221.37,22.077z"/> <path style="fill:#194F82;" d="M381.952,162.747C378.267,77.091,308.32,5.656,222.793,0.355 C124.595-5.915,42.623,71.596,41.33,168.178l-29.931,73.503c-3.168,6.206,1.875,14.675,10.149,14.998h45.253v30.901 c0,26.117,21.269,47.321,47.321,47.321h28.25v46.739c0,6.012,4.848,10.925,10.925,10.925h183.725 c6.012,0,10.925-4.848,10.925-10.925c0-56.307,8.275-108.348,24.63-154.699C379.754,206.384,382.922,184.792,381.952,162.747z M351.892,219.636c-16.097,45.64-24.695,96.453-25.729,151.079H164.158v-46.739c0-6.012-4.848-10.925-10.925-10.925h-39.176 c-14.093,0-25.471-11.442-25.471-25.471v-41.826c0-6.012-4.848-10.925-10.925-10.925H37.71l24.63-60.38 c0.517-1.293,0.776-2.715,0.776-4.073c0-0.646,0.065-1.164,0.065-1.745c2.844-81.842,66.715-147.653,158.19-146.489 c74.537,4.719,135.564,66.909,138.796,141.64C361.007,182.917,358.227,201.729,351.892,219.636z"/> <path style="fill:#56ACE0;" d="M84.837,176.776l-14.804,36.267h40.21v74.473c0,2.004,1.616,3.685,3.685,3.685h71.952v57.665h119.143 c2.715-48.937,11.442-94.642,26.182-136.533c5.43-15.192,7.758-31.289,7.046-47.709c-2.78-63.741-54.756-116.752-118.368-120.76 c-2.78-0.129-5.56-0.259-8.275-0.259c-45.446,0-85.333,24.048-107.701,60.057h28.121c6.012,0,10.925,4.848,10.925,10.925 c0,6.012-4.848,10.925-10.925,10.925H93.112c-2.651,6.853-4.655,13.964-6.012,21.333h18.941c6.012,0,10.925,4.848,10.925,10.925 c0,6.012-4.848,10.925-10.925,10.925H84.966"/> <path style="fill:#FFC10D;" d="M227.576,86.723c-2.069,0-46.933,3.62-54.368,46.933c-2.651,15.127,1.745,30.125,11.119,42.02 c17.778,22.626,27.669,48.42,28.832,75.119h28.897c1.228-26.505,11.119-52.493,28.962-75.248 c7.564-9.762,11.572-21.398,11.572-33.745C282.526,111.418,257.896,86.723,227.576,86.723z"/> <rect x="213.225" y="272.517" style="fill:#a5e7f8;" width="28.768" height="22.949"/> <path style="fill:#194F82;" d="M304.376,141.673c0-42.343-34.457-76.8-76.8-76.8c-2.844,0-63.16-1.616-76.024,65.616 c-4.008,20.945,2.521,41.956,15.515,58.505c15.903,20.234,24.372,43.507,24.372,67.168v50.23c0,5.818,4.848,10.925,10.925,10.925 h50.618c6.012,0,10.925-4.848,10.925-10.925l-0.065-50.23c0-23.467,8.404-46.739,24.501-67.297 C298.752,175.289,304.376,158.998,304.376,141.673z M241.928,272.517v22.949H213.16v-22.949H241.928z M242.057,250.731H213.16 c-1.164-26.634-11.119-52.558-28.832-75.119c-9.374-11.895-13.77-26.893-11.119-42.02c7.564-43.248,52.299-46.933,54.368-46.933 c30.319,0,55.014,24.63,55.014,55.014c0,12.347-4.008,24.048-11.572,33.745C253.176,198.303,243.286,224.226,242.057,250.731z"/> </g>
</svg>