<?xml version="1.0" standalone="no"?>
<!DOCTYPE svg PUBLIC "-//W3C//DTD SVG 20010904//EN"
 "http://www.w3.org/TR/2001/REC-SVG-20010904/DTD/svg10.dtd">
<svg version="1.0" xmlns="http://www.w3.org/2000/svg"
 width="106.000000pt" height="118.000000pt" viewBox="0 0 106.000000 118.000000"
 preserveAspectRatio="xMidYMid meet">

<g transform="translate(0.000000,118.000000) scale(0.100000,-0.100000)"
fill="#000000" stroke="none">
<path d="M49 812 c-15 -39 -36 -130 -42 -179 l-5 -43 110 0 c96 0 109 2 104
16 -3 9 -6 49 -6 90 l0 74 -44 0 -44 0 7 33 c8 32 7 32 -31 34 -34 2 -40 -1
-49 -25z"/>
<path d="M920 835 c0 0 4 -15 9 -33 l10 -32 -45 0 -44 0 0 -90 0 -90 100 0
100 0 0 38 c0 42 -23 146 -41 186 -11 23 -18 26 -51 24 -21 -1 -38 -2 -38 -3z"/>
<path d="M654 774 c-37 -18 -54 -51 -54 -102 0 -47 20 -77 70 -102 68 -35 85
-64 54 -94 -19 -20 -51 -20 -88 -1 -40 21 -46 19 -46 -15 0 -38 34 -61 89 -62
84 -1 132 40 133 113 0 46 -22 85 -64 107 -60 33 -81 56 -73 81 6 20 12 22 43
19 21 -3 44 -8 54 -12 11 -5 18 -2 22 12 10 29 -2 49 -36 61 -42 15 -67 13
-104 -5z"/>
<path d="M277 774 c-10 -10 -8 -346 2 -362 5 -8 21 -12 37 -10 29 3 29 3 32
81 l3 77 59 0 60 0 0 -80 0 -80 35 0 35 0 0 190 0 190 -35 0 -35 0 0 -75 0
-75 -60 0 -59 0 -3 73 -3 72 -30 3 c-17 2 -34 0 -38 -4z"/>
</g>
</svg>
